<?xml version="1.0" encoding="utf-8"?>
<!-- Generator: Adobe Illustrator 23.0.1, SVG Export Plug-In . SVG Version: 6.00 Build 0)  -->
<svg version="1.1" xmlns="http://www.w3.org/2000/svg" xmlns:xlink="http://www.w3.org/1999/xlink" x="0px" y="0px"
	 viewBox="0 0 800 600" style="enable-background:new 0 0 800 600;" xml:space="preserve">
<style type="text/css">
	.st0{fill:#808080;}
	.st1{font-family:'Roboto-Regular';}
	.st2{font-size:14px;}
</style>
<g id="Algeria">
	<path class="st0" d="M231.046,400.245l-4.536-3.087l-4.536-3.091l-4.536-3.093l-4.538-3.097l-3.163-2.061l-0.641-0.417l-3.74-2.436
		l-4.381-2.86l-4.381-2.861l-4.38-2.863l-5.173-3.382l-5.172-3.386l-5.171-3.389l-5.173-3.394l-5.173-3.396l-5.171-3.401
		l-5.171-3.401l-5.174-3.408l-5.171-3.408l-5.17-3.415l-5.174-3.415l-5.174-3.422v-2.767v-2.768v-2.769v-2.773v-1.771v-1.77v-1.769
		v-1.771v-1.773v-1.774v-1.774v-1.776v-1.775v-1.777v-1.779v-1.779v-1.781v-1.781v-1.781v-1.784v-1.36l0.094-0.802l0.292-0.562
		l0.49-0.425l3.346-1.822l1.176-0.945l1.187-0.664l0.329-0.339l0.897-1.595l0.393-0.321l0.92-0.414l0.431-0.259l1.733-1.664
		l1.781-1.219l2.944-1.309l0.871-0.614l2.386-2.285l2.767-1.881l1.598-1.506l1.255-0.654l0.4-0.32l1.596-1.63l0.893-0.397
		l1.222,0.054l1.155,0.2l0.585,0.022l0.577-0.067l0.543-0.201l2.971,0.171l2.374-2.516l2.922-1.259l2.009-0.21l2.922,0.21
		l4.566,1.888l2.192-2.098l3.653-0.42l3.836-1.05l3.653-0.42h3.836h3.288l3.105-0.63l3.288-0.42l0.913,2.73l2.192,0.839l2.557-0.839
		l2.74-3.57l2.374-3.785l1.827-3.579l2.557-2.74l2.74-1.898l2.922-2.533l2.192-1.69l2.74-1.479l3.836-1.692l3.653-2.963l2.922-3.813
		l2.557-1.484l3.105-0.848l4.018-0.212l4.384-1.061l4.931-2.548l-0.183-1.913l-0.183-1.914l1.279-1.277l1.461-2.342l-1.413-2.285
		l-0.035-0.593l-0.116-0.541l-0.251-0.564l-0.307-0.279L261.092,219l-0.465-0.45l-0.716-1.15l-0.374-0.399l-0.456-0.118
		l-0.388,0.207l-0.764,0.726l-0.466,0.207l-0.435-0.028l-0.31-0.275l-0.092-0.53l0.174-0.598l0.554-0.939l0.054-0.698l-0.165-2.309
		l0.105-0.56l0.332-0.413l1.438-1.057l1.933-0.125l0.365-7.928l1.78-0.935l1.114,0.255l0.972-0.086l7.64-1.381l5.662-1.718
		l4.566-0.645l-1.096-3.01l-1.802-4.812l1.504-0.853l4.851-0.413l4.689-1.312l3.594,0.168l1.658,0.076l1.876,0.089l2.046,0.096
		l2.176,0.104l2.258,0.107l2.297,0.108l2.289,0.107l2.238,0.105l2.142,0.1l2.001,0.096l1.815,0.086l1.587,0.075l1.313,0.061
		l0.993,0.046l0.627,0.03l0.221,0.011l1.97,0.094l1.025-0.247l0.516-1.097l-0.131-0.643l-0.424-0.38l-0.546-0.166l-0.5,0.006
		l-0.971,0.389l-0.423-0.008l-0.115-0.503l0.101-0.194l0.431-0.344l0.162-0.164l0.166-0.33l0.038-0.254l-0.008-0.261l0.054-0.368
		l0.416-2.825l0.35-1.116l0.261-0.548l0.423-0.557l0.425-0.224l1.083-0.158l0.97-0.402l0.867-0.666l1.515-1.702l-0.405-0.701
		l-7.305-5.643l-1.66-0.617l-0.858-0.734l-3.54-5.949l1.109-0.805l0.196-0.213l0.154-0.259l0.108-0.292l0.061-0.32l0.082-0.681
		l0.008-0.727l-0.169-0.646l-0.44-0.429l-0.762-0.557l-0.677-0.629l-0.54-0.768l-0.354-0.981l-0.47-0.892l-1.324-1.292l-0.239-1.027
		l0.004-3.077l0.271-0.794l0.358-0.788l0.49-1.747l0.392-0.586l0.331-0.854l-0.12-1.034l-1.178-2.832l-0.284-0.371l-0.456-0.34
		l-0.906-0.326l-0.401-0.279l-0.158-0.496l0.119-0.483l0.253-0.318l0.304-0.267l0.265-0.336l0.199-0.464l0.019-0.346l-0.275-0.917
		l-0.236-1.547l0.088-1.477l1.218-5.077l0.065-0.632l-0.064-0.404l-0.07-0.44l-1.864-5.825l-0.66-1.405l-1.001-1.195l2.788-3.397
		l-0.294-0.17l-0.952-0.289l-3.148-3.251l0.213-0.538l1.371-2.132l0.637-1.434l0.339-0.261l0.095-0.232l-0.475-0.488l-2.747-1.75
		l-0.886-0.841l-1.386-0.866l-0.359-0.433l-0.128-0.441l-0.034-0.435l-0.103-0.377l-0.331-0.257l-1.175-0.11l-0.881-0.573
		l-0.813-0.773l-0.974-0.706l-0.797-0.305l-0.467-0.633l-0.247-0.846l-0.038-1.256l0.587-0.218l0.104,0.04l0.091,0.013l0.083,0.047
		l0.08,0.138l0.771-0.393l0.906,0.201l0.944,0.405l0.882,0.222l1.69-0.238l0.6,0.199l0.217,0.039l0.173-0.068l0.453-0.369
		l2.451-0.71l0.678-0.499l0.219-0.051l0.787,0.025l0.342-0.073l0.406-0.294l0.857-1.016l1.672-0.57l0.291-0.195l0.214-0.566
		l3.114-2.664l0.509-0.176l2.482-0.27l0.689-0.207l0.145-0.079l0.132-0.124l0.687-0.869l0.493-0.141l0.496-0.347l0.423-0.43
		l0.285-0.395l0.223-0.641l0.31-1.522l0.268-0.577l0.304-0.499l0.917-2.404l0.183-0.332l0.308-0.146l0.615-0.034l0.136-0.154
		l0.674-0.964l0.279-0.204l0.617-0.454l0.802-0.759l0.305-0.497l0.195-0.199l0.948-0.225l0.498-0.327l0.421-0.369l0.399-0.259
		l0.617-0.189l0.325,0.028l0.145,0.271l0.138,0.131l0.309-0.133l0.995-0.591l0.639-1.102l0.61-0.173l0.213,0.123l0.194,0.224
		l0.234,0.216l0.344,0.097l0.262,0.037l0.51,0.162l0.297,0.039l0.31,0.097l0.141,0.236l0.119,0.283l0.232,0.244l0.257,0.063
		l0.995-0.063l0.472-0.118l0.532-0.257l0.438-0.372l0.316-0.912l0.319-0.052l0.361,0.11l0.27,0.041l0.274-0.165l0.183-0.219
		l1.212-2.568l0.026-0.346l-0.062-0.089l-0.05-0.201l-0.013-0.214l0.035-0.139l0.149-0.039l0.151,0.081l0.134,0.114l0.1,0.046
		l0.264-0.018l0.544,0.05l0.264-0.032l1.095-0.534l0.721-0.217l0.323,0.201l0.123,0.364l0.281,0.176l0.301,0.094l0.19,0.116
		l0.089,0.336l-0.159,0.441l0.07,0.344l0.428,0.47l0.683,0.346l1.865,0.396l1.123,0.48l0.554,0.11l0.267-0.06l0.8-0.18l1.165-0.61
		l1.083-0.798l0.825-0.813l0.926-1.889l0.267-0.813l0.885-2.041l0.219-0.748l0.036-0.363l0.091-0.2l0.217-0.157l0.259-0.141
		l0.221-0.163l1.259-1.342l0.453-0.324l1.672-0.579l0.287-0.205l0.121-0.215l0.574-0.371l0.215-0.198l0.091-0.286l0.125-0.767
		l0.123-0.274l0.464-0.256l0.638-0.133l1.148-0.054l0.6-0.116l0.442-0.293l0.389-0.368l1.921-1.312l0.991-0.294l0.451-0.4
		l0.402-0.446l0.44-0.312l0.502-0.121l2.016-0.168l0.336-0.028l0.404-0.198l0.876-0.613l1.633-0.448l0.413-0.317l0.27-0.3l0.6-0.414
		l0.296-0.293l0.115-0.252l0.068-0.28l0.109-0.293l0.242-0.284l0.444-0.189l1.163-0.283l0.985-0.651l1.887-0.008l0.572-0.204
		l1.042-0.569l0.625-0.114l1.119,0.026l0.523-0.057l0.595-0.192l1.527-0.773l0.549-0.095l0.478,0.09l1.138,0.421l0.608,0.136
		l0.615-0.031l1.074-0.318l4.796-0.275l0.408-0.024l0.266-0.068l0.613-0.298l0.289-0.079l0.23,0.036l0.561,0.163l0.298,0.004
		l1.429-0.393l1.47-0.09l1.219,0.261l0.323,0.02l2.276-0.278l6.531-1.966l0.517-0.22l0.574-0.035l0.568,0.146l0.485,0.313
		l0.166,0.292l0.051,0.297l0.102,0.228l0.313,0.093l0.281,0.034l0.536,0.154l0.255,0.034l3.756-0.222l0.842-0.286l2.471-1.957
		l1.71-0.903l0.672-0.585l0.651-0.962l0.164-0.446l0.674-0.677l1.501-1.102l1.148-0.238l0.204,0.029l0.766,0.106l0.881,0.546
		l0.683,0.77l0.727,0.636l1.002,0.334l0.866-0.032l0.159-0.007l0.812-0.475l0.281-0.458l0.128-0.482l0.032-0.853l0.274-0.024
		l1.703,0.793l0.98,0.263l3.141,0.183l0.517-0.07l1.008-0.305l0.542-0.07l0.279-0.088l0.2-0.203l0.162-0.218l0.164-0.138
		l0.257-0.045l0.559,0.061l0.268-0.016l0.983-0.502L454,37.222l0.846-0.588l2.237-0.71l1.212-0.141l1.012,0.184l0.932,0.598
		l0.413,0.069l0.283-0.036l0.564-0.152l0.915-0.028l0.211,0.028l1.202,0.158l0.506,0.273l1.089-0.59l0.34-0.078l0.315,0.066
		l0.666,0.291l0.351,0.068l0.323-0.098l0.691-0.447l0.332-0.122l0.434,0.037l0.717,0.327l0.374,0.08l3.146-0.444l0.321,0.05
		l0.396,0.133l0.374,0.181l0.249,0.192l0.317,0.173l0.844,0.024l0.37,0.158l0.81-0.366l0.259-0.011l0.821-0.037l1.963,0.17
		l1.857-0.223l0.472,0.085l4.254,1.817l0.481,0.461l0.14,0.22l0.315,0.06l0.362-0.001l0.255,0.035l0.187,0.166l0.23,0.402
		l0.102,0.119l0.438,0.211l0.515,0.163l0.538,0.088l0.487-0.016l-0.523,1.589l0.14,0.516l0.738,0.568l3.069,1.578l0.868,0.223
		l0.923,0.036l1.778-0.258l1.455-0.422l0.151-0.044h0.81l0.123-0.081l0.33-0.408l0.181-0.159l1.046-0.409l0.519-0.393l0.359-1.183
		l0.351-0.502l0.464-0.408l0.472-0.243l1.148-0.342l0.487-0.255l0.938-0.845l0.608-0.223l0.655-0.034l1.804,0.38l1.072-0.039
		l4.398-1l4.179-1.593l1.01-0.617l0.553-0.804l0.045-0.687l-0.1-0.54l-0.008-0.513l0.325-0.615l0.198-0.212l1.051-0.799l0.372-0.434
		l0.257-0.241l0.859-0.465l1.155-0.311L525.945,30l1.053,0.36l0.938,0.74l0.147,0.052l0.013,0.334l0.062,0.241l0.136,0.148
		l0.236,0.051l0.3,0.241l0.274,1.242l0.423,0.547l0.383-0.156l0.457,0.178l0.51,0.279l0.523,0.145l3.943,0.222l0.334,0.114
		l0.47,0.287l0.44,0.365l0.272,0.351l-0.011,0.535l0.778,0.295l1.023,0.098l0.706-0.037l2.323-0.723l0.727-0.412l0.413,0.184
		l0.659,0.165l0.619,0.019l0.274-0.245l0.234-0.317l1.106-0.947l0.37-0.197l0.159-0.152l0.211-0.354l0.187-0.405l0.081-0.309
		l-0.047-0.368l-0.132-0.254l-1.029-1.11l-0.77-0.645V30.36l0.289-0.044l0.508-0.164l0.274-0.016l0.264,0.084l0.485,0.283
		l0.24,0.061l0.058,0.024l0.098,0.043l0.111,0.12l0.106,0.056l0.164-0.123l0.189-0.236l0.115-0.073l0.132-0.015l0.251,0.092
		l0.485,0.293l0.264,0.063l0.221-0.071l0.668-0.377l0.353-0.001l0.072,0.029l0.017,0.131l0.187,0.289l0.109,0.369l0.168,0.21
		l0.355,0.091l0.525,0.008l0.23,0.064l0.234,0.152l0.427-0.264l0.466-0.163l0.938,0.715l0.778,0.827l0.861,0.663l1.168,0.232
		l0.257-0.069l0.23-0.117l0.253-0.073l0.33,0.056l0.296,0.142l0.266,0.177l0.232,0.212l0.206,0.24l1.255-0.12l0.262-0.106
		l0.478-0.538l0.249-0.23l-0.198,0.667l-0.325,0.723l-0.113,0.643l0.442,0.426l-0.464,0.931l0.008,0.007l0.944,0.706l1.478,0.449
		l1.097,0.158l3.698-0.916l0.602-0.32l0.523-0.471l3.662-1.84l0.47,0.307l0.459,0.488l0.506,0.255l1.18-0.061l0.593,0.061
		l0.472,0.245l0.387-0.157l0.334,0.152l0.334,0.274l0.374,0.197l0.902,0.086l0.898-0.086l2.727-1.149l0.016-0.005l0.082,0.865
		l-0.022,0.394l0.089,0.335l0.897,1.379l-0.022,0.397l-0.467,0.336l-1.812,0.732l-0.899,0.187l-0.978-0.068l-1.01,0.123
		l-0.808,0.401l-0.167,0.519l0.913,0.482l0.527,0.666l-0.224,1.146l-0.597,1.142l-0.586,0.652l-3.163,1.928l-1.688,0.639
		l-0.754,0.481l-0.616,0.753l-0.053,1.1l-0.001,0.02l1.07,0.44l2.269,0.297l0.505,0.262l0.494,0.138l0.403,0.247l0.221,0.598
		l0.051,0.623l-0.041,1.34l-0.071,0.448l-0.027,0.169l-1.237,3.479l-0.124,1.338l0.124,0.643l0.195,0.601l0.068,0.584l-0.238,0.612
		l-0.294,0.537l-0.551,2.379l-0.084,1.78l-0.105,0.383l-0.554,2.019l-0.151,2.566l0.113,1.367l0.311,1.127l1.278,2.106l0.446,1.052
		l0.095,0.99l0.257,2.682l-0.008,0.949l-0.937,2.275l-0.284,1.119l-0.054,1.171l0.167,1.313l0.602,1.14l0.989,0.485l1.089,0.341
		l0.899,0.703l-0.259,0.628l-1.58,2.436l-1.234,1.369l-0.346,1.131l-0.459,2.35l-0.624,1.702l-0.265,1.234l0.049,1.185l0.486,3.211
		l-0.073,0.432l-0.205,0.286l-0.036,0.05l-0.84,0.892l-0.308,0.475l-0.073,0.494l0.675,1.066l-0.2,0.356l-0.94,0.594l-0.165,0.259
		l-0.184,0.553l-0.113,0.218l-0.208,0.213l-0.616,0.376l-1.076,0.964l-0.22,0.197l-2.482,1.141l-1.091,0.785l-2.266,0.999
		l-1.021,0.745l-0.513,1.112l-0.983,3.744l-0.235,0.514l-0.327,0.397l-0.494,0.265l-1.661,0.268l-1.016,0.512l-0.716,0.746
		l-0.64,0.854l-1.054,1.096l-0.569,0.591l-0.359,0.854l-0.081,2.325l-0.543,3.161l0.132,1.224l0.357,1.731l0.181,0.539l0.751,1.465
		l0.267,1.633l0.224,0.801l1.661,2.912l2.001,3.506l0.394,1.229l0.001,0.13l0.037,4.147l0.4,1.461l0.672,0.742l0.962,0.292
		l1.253,0.118l0.953,0.325l2.896,2.101l0.508,0.264l0.535,0.166l0.548,0.038l0.546-0.123l0.583,0.359l2.471,3.88l2.652,4.154
		l0.354,0.994l0.354,4.366l0.251,3.204l0.305,1.022l0.036,0.039l0.715,0.785l3.206,2.051l4.173,3.037l5.467,3.969l4.4,3.191
		l0.362,0.435l0.294,0.583l0.478,2.209l0.07,0.324l0.745,3.39l0.737,3.386l0.743,3.378l0.74,3.378l0.74,3.374l0.743,3.368
		l0.737,3.366l0.745,3.36l0.74,3.358l0.74,3.354l0.74,3.349l0.743,3.346l0.743,3.341l0.74,3.337l0.74,3.335l0.74,3.331l-6.094,3.379
		l0.613,0.99l1.555,1.859l1.365,1.632l3.344,5.016l3.085,5.837l2.07,7.203l2.07,7.186l0.578,4.568l0.078,5.663l-0.627,4.986
		l-1.315,10.435l0.338,1.725l3.817,10.148l-0.043,1.162l-0.078,0.259l-1.775,5.887l-0.438,0.588l-0.735,0.4l-0.643,0.472
		l0.084,0.614l0.381,0.659l0.259,0.614l-0.208,0.566l-1.126,1.245l-0.373,0.624l-0.346,1.734l-0.432,1.16l-0.122,0.477l-0.013,0.488
		l2.215,7.835l0.508,3.066l0.251,0.574l0.286,0.265l1.17,0.656l0.413,0.354l0.103,0.421l-0.656,3.118l-0.076,1.019l0.3,0.813
		l0.06,0.62l-1.091,3.753l-0.492,0.589l-9.229,4.426l-0.032,0.582l-0.097,0.497l-0.23,0.423l-0.891,0.846l-0.478,1.158l-0.365,0.468
		l-0.646,1.376l0.611,1.617l3.663,5.149l3.989,5.6l3.209,4.495l3.992,5.59l1.005,1.85l0.351,1.833l0.108,3.802l0.116,4.078
		l0.054,3.998l0.327,0.769l3.889,2.294l0.492,0.779l0.459,2.672l0.327,1.001l0.473,0.531l3.436,2.777l0.489,0.192l1.037-0.105
		l3.047-1.135l2.89-1.074l0.567-0.065l0.565,0.11l4.983,1.66l6.237,2.072l8.291,2.754l1.082,0.359l0.856,0.468l0.673,0.879
		l1.812,3.702l1.885,3.855l0.04,0.081l2.931,5.988l1.831,3.728l1.999,4.069l-1.777,1.145l-1.78,1.143l-1.777,1.142l-1.777,1.142
		l-1.78,1.142l-1.78,1.142l-1.775,1.14l-1.78,1.14l-1.78,1.142l-1.775,1.14l-1.78,1.139l-1.78,1.141l-1.775,1.139l-1.78,1.138
		l-1.78,1.139l-1.78,1.139l-1.777,1.136l-1.78,1.138l-1.78,1.138l-1.777,1.136l-1.777,1.134l-1.78,1.137l-1.775,1.135l-1.78,1.135
		l-1.78,1.138l-1.777,1.134l-1.777,1.134l-1.78,1.134l-1.777,1.135l-1.777,1.133l-1.78,1.133l-1.777,1.132l-1.777,1.133l-1.78,1.132
		l-1.777,1.131l-1.78,1.133l-1.777,1.132l-1.777,1.13l-1.78,1.13l-1.777,1.131l-1.777,1.128l-1.78,1.131l-1.777,1.129l-1.777,1.13
		l-1.78,1.127l-1.78,1.129l-1.777,1.128l-1.78,1.129l-1.777,1.128l-1.78,1.128l-1.777,1.125l-1.78,1.128l-1.777,1.126l-1.777,1.125
		l-1.78,1.125l-1.78,1.125l-1.775,1.126l-1.78,1.124l-1.78,1.124l-1.775,1.125l-1.78,1.125l-1.78,1.123l-1.775,1.124l-1.78,1.122
		l-3.425,2.158l-2.59,2.263l-1.864,1.626l-1.866,1.629l-1.866,1.625l-1.867,1.626l-2.026,1.767l-0.986,0.888l-1.507,1.384
		l-1.648,1.513l-1.648,1.511l-1.645,1.51l-1.65,1.51l-1.646,1.511l-1.648,1.509l-1.65,1.51l-1.642,1.508l-1.65,1.509l-1.648,1.507
		l-1.648,1.506l-1.648,1.507l-1.648,1.505l-1.648,1.506l-1.65,1.504l-1.648,1.505l-2.058,1.876l-1.132,0.799l-1.175,0.446
		l-3.368,0.685l-2.604,0.529l-5.724,1.161l-5.724,1.163l-2.604,0.527l-4.932,1.002l-4.929,1l-4.929,1.002l-4.929,1.001l-4.47,0.88
		l-4.47,0.88l-2.515,0.494l-1.953,0.383l-4.467,0.88l-2.739,0.537h-0.003l-2.118,0.519l-0.67,0.036l-0.383-0.059l-0.262-0.11
		l-0.613-0.388l-1.54-1.529l-1.207-0.524l-0.554-0.319l-0.519-0.401l-0.467-0.464l-0.438-0.628l-0.038-0.499l0.238-0.492
		l0.386-0.609l0.2-0.54l0.132-0.251l0.351-0.229l0.567-0.594l0.116-0.473l0.13-1.074l0.238-0.507l0.486-0.417l0.554-0.304
		l0.478-0.377l0.257-0.633l-0.067-0.611l-0.281-0.445l-0.332-0.412l-0.229-0.508l0.005-0.263l0.143-0.55l0.016-0.178l-0.111-0.241
		l-0.135-0.108l-0.14-0.086l-0.138-0.166l-0.335-1.015l-0.03-1.071l0.484-5.598l-0.105-0.38l-0.365-0.355l-0.408-0.2l-0.945-0.284
		l-0.432-0.203l-1.513-1.213l-3.309-1.467l-7.166-1.517l-1.434-0.06l-2.385-0.467l-0.284-0.021l-0.508-0.116l-0.943-0.52
		l-0.508-0.203l-0.632-0.144l-0.4-0.147l-0.305-0.302l-1.059-1.954l-0.829-1.184l-0.964-1.052l-1.604-1.285l-0.454-0.274
		l-0.481-0.128l-0.551,0.099l-0.605,0.396l-1.064,1.018l-0.686,0.304l-0.389-0.05l-1.645-0.582l-0.262-0.166l-0.202-0.181
		l-0.222-0.139l-0.311-0.042l-0.367,0.106l-0.443,0.417l-0.284,0.14l-0.575-0.019l-0.197-0.344l-0.092-0.527l-0.254-0.571
		l-0.408-0.315l-0.421-0.03l-0.47,0.065l-0.567-0.036l-0.551-0.262l-3.109-2.599l-0.259-0.406l0.022-2.09l-0.159-0.995l-0.529-0.798
		l-1.672-1.291l-1.029-0.544l-0.964-0.157l-0.462-0.304l-0.478-0.146l-1.053-0.176l-1.129-0.354l-0.446-0.319l-0.402-0.526
		l-0.548-0.972l-0.362-0.3l-0.61-0.166l-0.551,0.012l-1.04,0.227l-0.554,0.009l-0.594-0.081l-0.365-0.149l-0.192-0.354l-0.07-0.693
		l0.019-0.549l0.581-2.52l0.329-3.058l-0.057-0.616l-0.486-1.797l-0.335-0.566l-3.063-2.147l-2.266-1.589l-2.263-1.588l-2.264-1.589
		l-2.266-1.588l-2.264-1.592l-2.263-1.592l-2.265-1.593l-2.264-1.592l-2.265-1.593l-2.262-1.592l-2.266-1.594l-1.895-1.335
		l-0.37-0.261l-2.264-1.597l-2.266-1.596l-2.265-1.596l-2.264-1.597l-2.264-1.598l-2.265-1.6l-2.263-1.6l-2.266-1.6l-2.265-1.6
		l-2.264-1.599l-2.265-1.602l-2.263-1.604l-2.266-1.604l-2.263-1.603l-2.263-1.606L320.552,464l-2.266-1.605l-2.262-1.608
		l-2.265-1.608l-2.263-1.607l-2.266-1.608l-2.263-1.609l-2.265-1.608l-2.263-1.612l-2.266-1.612l-2.262-1.612l-2.265-1.612
		l-2.265-1.612l-2.266-1.614l-2.264-1.616l-2.263-1.616l-2.265-1.616l-2.265-1.617l-2.264-1.616l-2.265-1.619l-2.263-1.62
		l-2.086-1.489l-2.081-1.491l-2.082-1.491l-2.084-1.49l-2.084-1.492l-2.084-1.492l-2.08-1.494l-2.083-1.493l-2.082-1.496
		l-2.084-1.496l-2.084-1.495l-2.082-1.496l-2.083-1.497l-2.081-1.497l-2.084-1.499l-2.083-1.499l-2.903-2.092l-1.995-1.373
		l-1.995-1.372l-1.993-1.375l-1.994-1.375l-0.003-0.001l-0.005-0.005L231.046,400.245z"/>
</g>

</svg>
