<?xml version="1.0" encoding="utf-8"?>
<!-- Generator: Adobe Illustrator 23.0.1, SVG Export Plug-In . SVG Version: 6.00 Build 0)  -->
<svg version="1.1" xmlns="http://www.w3.org/2000/svg" xmlns:xlink="http://www.w3.org/1999/xlink" x="0px" y="0px"
	 viewBox="0 0 800 600" style="enable-background:new 0 0 800 600;" xml:space="preserve">
<style type="text/css">
	.st0{fill:#808080;}
	.st1{font-family:'Roboto-Regular';}
	.st2{font-size:14px;}
</style>
<g id="Ghana">
	<path class="st0" d="M472.466,32.37l0.619,1.402l1.38,1.281l1.691,0.944l1.53,0.394l1.524-0.158l2.824-0.751l1.565-0.026
		l2.777,1.067l1.255,1.984l0.266,2.624l-0.236,3.002l-0.198,1.062l-0.582,0.582l-0.729,0.466l-0.666,0.703l-0.404,0.797l-1.801,8.51
		l0.065,0.821l0.426,1.665l-0.155,0.899l-0.718,0.689l-1.698,1.157l-1.174,1.499l-0.632,1.477L478.953,68l-0.286,1.199l-0.51,2.137
		l-0.054,1.765l0.849,1.75l0.731,0.612l0.913,0.44l0.991,0.258l1.922,0.249l0.593,0.398l0.52,0.509l0.752,0.514l2.601,0.866
		l0.757,0.466l0.658,0.792l0.971,1.88l0.686,0.833l4.402,2.781l1.318,1.408l4.238,7.944l0.241,0.297l0.636-0.065l0.353-0.498
		l0.224-0.553l0.219-0.245l2.207,0.872l0.8,0.114l0.943-0.247l0.78-0.385l0.754-0.24l0.851,0.197l0.821,0.828l0.036,0.933
		l-0.277,0.896l-0.116,0.723l0.933,1.534l1.416,1.287l0.875,1.348l-0.731,1.711l1.161-0.013l3.647-0.612l0.797,0.384l1.698,1.413
		l-2.042,1.529l-0.396,1.295l-0.239,1.387l-0.602,1.134l0.138,2.846l-0.436,5.985l0.815,2.183l1.055,0.683l0.916,0.223l0.671,0.557
		l0.249,1.709l-0.297,1.4l-0.055,0.259l-0.929,0.244l-1.285-0.214l-1.457,0.279l0.494,0.831l-0.049,0.537l-0.282,0.524l-0.163,0.781
		l0.138,0.567l0.995,1.999l0.565,1.669l-0.051,0.692l-0.58,0.519l-1.066,1.159l-0.671,1.281l-0.17,1.178l0.376,3.384l-0.026,0.96
		l-1.784,6.561l0.12,1.57l0.436,0.909l0.595,0.659l0.555,0.84l0.387,1.241l0.189,1.535l-0.232,1.476l-0.868,1.04l-1.492,0.188
		l-1.397-0.778l-2.216-2.342l-1.191,2.398l0.06,2.466l1.326,1.768l2.592,0.279l3.374-0.863l1.646,0.318l0.714,1.748l-0.576,1.162
		l-1.348,0.384l-1.535-0.262l-1.141-0.754l-1.487,0.977l-1.999,0.118l-4.187-0.471l-0.204,0.54l-0.389,2.376l0.028,0.538
		l0.208,0.242l0.608,0.534l0.823,0.582l0.864,0.375l2.121-0.401l1.176,0.061l0.731,0.913l-0.318,0.874l-1.064,0.737l-1.296,0.508
		l-3.467,0.706l-0.009,1.201l0.585,1.347l-0.679,0.963l0.378,1.129l1.541,0.17l1.547-0.312l3.804-1.336l0.632-0.536l0.327-0.717
		l0.254-1.706l0.415-0.667l1.262-0.554l1.87-0.336l3.346-0.187l1.562,0.257l4.415,1.617l0.533,0.75l0.146,0.83l-0.189,0.865
		l-0.55,0.943l-0.017,0.083l0.017,0.083l0.06,0.087l2.476,0.847l1.505,1.322l0.516,1.978l-0.774,4.274l-0.138,2.47l-0.344,1.061
		l-0.843,0.873l-0.937,0.549l-0.679,0.808l-0.077,1.661l1.032,3.016l0.026,1.343l-1.006,1.72l-1.883,1.687l-0.526,0.812l0.009,1.317
		l-0.438,2.714l-1.408,2.616l-0.855,2.577l1.116,2.613h0.017v0.009l4.013,6.841l1.04,4.116l-1.83,2.64l-0.009,0.014l-0.421,1.051
		l-0.12,1.311l-0.292,1.111l-0.916,0.441l-1.079-0.174l-0.84-0.259l-0.772-0.109l-0.877,0.294l0.447,0.331l-0.555,1.407
		l-0.873,0.972l-0.89-1.892l-0.984-0.383l-1.049,0.196l-0.565,0.798l0.184,1.076l0.528,3.09l2.437,5.275l3.31,4.646l3.327,2.278
		l1.418,1.65l2.012,1.863l2.167,1.573l5.451,2.571l1.453,3.09l1.075,3.183l3.19,2.657l0.181,0.871l-0.026,0.965l0.206,1.234
		l-0.069,0.843l0.052,0.397l0.327,0.287l0.997,0.161l0.31,0.287l0.327,2.068l-0.628,1.279l-1.333,0.832l-3.671,1.633l-1.393,0.921
		l-2.768,2.5l-0.696,0.334l-0.636,0.078l-0.43,0.326l-0.094,1.088l0.344,0.884l0.645,0.623l0.576,0.721l0.146,1.162l-0.456,1.088
		l-0.653,0.506l-0.413,0.595l0.439,2.062l0.31,3.951l0.765,3.134l0.043,1.611l-0.069,3.129l0.817,5.558l0.06,0.405l-0.069,5.029
		l0.756,4.799l-0.18,4.39l0.232,1.64l-2.407-0.408l-1.066,1.709l-0.258,2.602l0.026,2.281l-0.473,1.128l-1.126,0.581l-1.333,0.364
		l-1.092,0.49l-0.842,0.824l-0.516,0.898l-0.301,1.032l-0.318,4.874l0.413,4.132l1.341,3.693l2.622,2.328l1.513,0.208l1.651-0.299
		l3.061-1.136l0.55,0.733l1.333,5.5l-0.103,1.816l-1.109,3.077l-0.774,3.891l-2.003,5.026l-0.284,3.284l0.37,3.773l-0.06,3.647
		l-1.591,2.884l-1.075,0.598l-3.508,0.918l-1.221,0.091l-1.212,0.377l0.954,1.282l2.364,1.836l0.98,1.771l-0.198,1.411l-1.754,2.94
		l-0.559,1.762l0.266,0.801l0.8,0.478l1.014,0.784l2.407,4.496l0.55,0.736l1.427,0.303l1.453,0.803l1.212,1.154l0.705,1.353
		l0.086,1.359l-0.722,4.228l0.464,1.75l1.092,1.002l1.169,0.863l0.731,1.331l0.782,0.078l2.321-0.074l0.757,0.156l1.066,1.045
		l-0.052,0.781l-0.585,0.785l-0.524,1.067l-0.033,0.507l-0.113,1.721l0.516,2.055l0.997,1.988l1.315,2.024l1.754,1.804l4.109,2.033
		l2.089,1.326l2.708,3.272l1.075,0.815l1.702,0.458l6.345,0.026l2.175,6.707l1.29,1.851l0.662,0.484l0.619,0.257l0.628,0.342
		l0.636,0.733l1.092,1.697l0.894,1.04l1.143,0.586l6.886,0.787l0.98,1.327l-0.214,2.941l-0.047,0.014l-0.535,0.198l-3.771,2.035
		l-2.85,2.226l-4.224,4.547l-0.968,1.463l-2.051,4.091l-0.386,1.637l-0.122,1.725l-0.86,3.906l-0.724,1.555l-2.64,2.48l-3.364,1.17
		l-15.881,1.81l-29.826-2.177l-3.574,0.19l-1.983,0.463l-1.009,0.401l-0.42,0.49l-0.42,0.238l-2.01,0.088l-0.697,0.245l-1.577,1.133
		l-5.571,1.51l-1.273,0.861l-2.288,2.139l-3.236,0.929l-1.164,1.231l-0.921,1.51l-1.34,1.371l-6.617,2.234l-0.386,0.231
		l-1.086,1.088l-0.487,0.388l-0.731,0.262l-1.32,0.119l-17.851,5.788l-3.764,0.476l-0.514,0.252l-1.022,0.496l-6.113,5.128
		l-0.65,0.942l-0.437,1.285l-1.12,1.163l-2.982,1.836l-5.818,1.438l-0.995,0.01l-0.609,0.602l-1.347,1.027l-1.381,0.442l-0.69-1.183
		l-4.305,3.019l-1.063,0.398l-4.86,3.994l-1.977,2.332l-1.252,0.789l-6.184,0.904l-1.909-0.085l-1.219-1.084l-0.565,0.717
		l-0.785,0.275l-2.058,0.143l-2.004,0.51l-0.985-0.041l-0.423-0.748l-0.298-0.755l-0.664,0.187l-1.022,0.846l-1.371,0.122
		l-1.33,0.357l-8.678,3.742l-0.88,1.223l-0.745,0.724l-1.699,0.999l-3.29,1.492l-1.706,0.353l-5.416,0.163l-0.894,0.252
		l-1.926,1.148l-0.904,0.364l-0.843,0.065l-1.716-0.105l-0.846,0.041l-1.54,0.5l-3.016,1.478l-5.788,0.826l-1.879,0.707
		l-1.408,1.013l-0.058,0.041l-1.195-0.55l-1.466-0.109l-1.415,0.353l-1.029,0.819l-0.132,0.676l0.579,1.257l-0.19,0.659
		l-0.521,0.598l-0.345,0.313l-5.697,2.82l-1.012,0.771l-2.4,2.653l-0.186,0.612l0.149,0.557l-0.041,0.394l-0.734,0.146l-0.775,0.061
		l-5.713,1.634l-6.377,2.86l-1.33,1.175l-2.011,2.867l-1.249,1.196l-1.178,0.476l-5.734,0.734l-1.12,0.455L312.384,570l-0.501-0.112
		l-0.606-0.55l-0.233-0.859l0.088-0.934l-0.196-0.754l-1.08-0.302l-0.67-0.095l-1.259-0.387l-0.934-0.092l0.085-0.384l-0.778-0.822
		l-3.54-2.833l-1.757-0.747l-0.802-0.482l-0.339-0.74l-0.142-0.611l-0.366-0.639l-0.46-0.509l-8.638-3.38l-14.074-2.905
		l-13.695-4.658l-10.851-0.826l-11.989-2.107l-11.542-3.541l-1.32-0.302l0.359-1.376l0.582-0.149l0.775-0.303l0.944-0.146
		l5.95,0.044l1.797,0.527l0.498,0.493l1.015,1.471l0.447,0.313l1.097-0.149l1.706-0.72l0.907-0.272l-0.223-2.294l2.312-0.969
		l2.989-0.476l1.797-0.819l3.314,0.129l1.911-0.276l1.186-0.848l0.8-1.573l-0.456-0.537l-1.096-0.939l-0.262-0.289l-0.069-0.762
		l0.352-1.746l0.043-0.714l-0.37-0.961l-1.161-1.673l-0.236-1.159l0.546-5.17l2.803,0.514l1.105-0.203l0.825-1.051l0.211-1.457
		l-0.357-1.503l-2.27-5.328l-1.474-5.981l-0.198-4.379l-0.314-1.35l-0.653-1.095l-1.066-0.866l-5.926-1.531l-1.352,0.54
		l-2.708,1.641l-1.627,0.203l-1.967-1.099l-0.449-2.16l0.84-5.225l-5.403,0.462l0.815-9.54l-0.213-3.023l-1.014-3.027l-3.205-5.875
		l-1.208-2.989l-2.521-13.952l-1.771-4.67l-2.448-2.24l-0.243-0.296l-0.988-1.199l-6.564-29.57l0.116-1.406l0.6-0.879l1.533-0.85
		l0.451-0.548l1.633-4.596l-0.193-0.558l-1.122-2.171l-1.04-1.344l-0.361-0.848l0.116-3.028l1.393-3.225l9.594-16.508l1.025-0.642
		l0.057-0.035l0.094-0.059l4.12-1.347l0.421-0.593l0.688-4.193l0.421-0.845l3.813-4.787l0.739-1.629l0.06-1.144l-0.37-0.68
		l-0.557-0.693l-0.524-1.17l-0.077-0.984l4.071-25.711l1.111-3.4l6.007-12.918l0.322-0.551l0.836-1.02l0.32-0.551l0.021-0.455
		l-0.243-1.089l0.069-0.421l0.716-0.681l1.851-1.119l0.662-0.716l0.275-0.929l0.361-6.271l0.243-0.616l0.522-0.061l0.555,0.369
		l0.421,0.477l0.116,0.269l1.358-1.146l3.796-4.397l1.53-1.094l4.965-1.667l1.715-0.875l0.821-1.087l0.077-1.465l-0.537-2.01
		l-1.1-2.419l-0.202-1.062l0.353-1.324l0.58-1.122l0.533-0.499l0.688,0.043l1.057,0.499l0.959,0.102l1.135-0.384l3.736-2.213
		l0.572-1.281l-3.828-23.549l-3.828-23.566l-0.396-1.32l-0.752,0.352l-0.018-0.03l-0.403-0.661l0.215-1.072l0.615-0.559l0.881-0.492
		l0.09-1.151l-1.694-5.873l-0.103-1.447l-0.189-0.724l-0.464-0.2l-0.559-0.083l-0.494-0.379l-1.298-3.951l-0.086-1.721l-0.537-1.354
		l-2.102-1.125l-2.102-0.475l-2.132-0.104l-1.152-0.191l-0.653-0.459l-0.533-0.557l-0.812-0.464l0.782-1.191l0.344-1.321
		l0.159-4.214l0.348-0.701l1.771-1.829l1.449-2.985l0.971-1.529l2.639-1.389l0.993-1.603l0.112-1.601l-1.307-0.725l-1.453-0.322
		l-1.178-0.869l-0.653-1.3l0.138-1.59l0.855-1.124l1.135-0.529l0.989-0.63l0.426-1.436v-2.274l-0.413-1.414l-0.107-0.656l0.34-2.693
		l-0.09-1.201l-1.126-1.434l-3-3.807l-2.979-2.731l-0.43-0.867l-0.146-1.373l0.129-1.358l0.413-1.38l0.714-1.236l1.062-0.922
		l-0.27-0.21l-0.633-0.494l-0.267-0.774l-0.103-0.772l-0.421-0.682l-0.726-0.366l-0.464,0.052l-0.456-0.079l-0.679-0.761
		l-0.567-1.751l0.31-1.766l1.393-2.82l2.876-3.23l0.529-0.859l-0.236-0.827l-1.977-3.204l-0.361-2.129l0.774-3.834l0.099-2.165
		l-0.542-1.519l-1.887-2.85l-0.408-1.711v-7.239l-0.868-3.817l0.039-1.684l1.087-1.738l1.685-1.33l0.619-0.745l0.275-1.125
		l-0.047-1.086l-0.284-0.45l-0.542-0.253l-0.83-0.518l-0.8-0.301l-0.726,0.022l-0.54-0.201l-0.202-0.963l-0.299-0.566l-0.709-0.175
		l-0.851-0.096l-0.727-0.319l-0.675-1.379v-1.774l0.417-1.724l0.567-1.237l0.593-0.787l0.641-0.518l0.806-0.288l1.077-0.087
		l0.911-0.361l0.761-0.795l0.361-0.793l-0.322-0.363l-2.033-0.052l-1.354-0.229l-1.023-0.524l-2.921-2.588l-0.651-1.069
		l-0.254-1.652l-0.245-0.398l-1.124-1.126l-0.385-0.496l-0.223-0.826l-0.138-1.806l-0.202-0.833l-2.493-4.452l-0.352-1.616
		l0.236-0.838l1.115-2.021l0.507-1.389l0.234-0.324l0.185-0.374l-0.002-0.547l-0.241-0.376l-0.383-0.184l-0.359-0.068h-0.163
		l-0.087-0.379l-0.197-0.857l0.254-0.507l0.89-0.886l0.456-0.803l0.301-1.934l1.399-2.293l0.918-3.928l0.615-1.764l1.118-1.294
		l1.326-1.022l1.12-1.241l0.469-1.939l-0.499-1.622l-0.911-1.502l-0.499-1.618l0.23-0.602l-0.116-0.491l7.172,0.131l0.034,0.9
		l1.822-0.018l7.807-0.078l16.236-0.166l20.122-0.199l18.716-0.188l18.2-0.18l12.926-0.127l0.971-0.554l0.598-1.487l1.449-0.455
		l10.51,0.328l1.038,0.407l0.834,0.327l2.762,1.083l2.085,0.385l10.583,0.105l10.024,0.096l0.735-1.29l2.36-0.368l11.469,0.915
		l0.701,0.142l0.632,0.442l0.58,1.145l0.426,0.271l0.868-0.035l-0.554,1.158l1.449-0.204l1.861-2.058l1.78-0.3l0.477-0.589
		l0.49-0.206l0.469,0.188l0.43,0.606v0.022l9.479,0.173l0.584,0.011l0.112,0.957l0.37,0.079l0.58-0.215l0.774,0.07l0.494,0.593
		l-0.357,0.679l-0.623,0.672l-0.249,0.591l3.993,3.866l1.457-0.904l0.842-1.913l0.606-2.08l0.77-1.412l1.195-0.451l1.728-0.186
		l3.241,0.112l0.292-0.094l0.271-0.144l0.249-0.188l0.206-0.215V44.12l0.782-0.97l2.188-1.044l0.984-0.804l0.451-0.898l0.185-1.923
		l0.387-1.233l1.595-2.037h1.608l1.578,1.277l1.496,1.796l4.17-3.064l1.055-1.032l0.651-1.259l-0.187-0.765l-0.327-0.795L461.189,30
		L472.466,32.37z"/>
</g>

</svg>
