<?xml version="1.0" encoding="utf-8"?>
<!-- Generator: Adobe Illustrator 23.0.1, SVG Export Plug-In . SVG Version: 6.00 Build 0)  -->
<svg version="1.1" xmlns="http://www.w3.org/2000/svg" xmlns:xlink="http://www.w3.org/1999/xlink" x="0px" y="0px"
	 viewBox="0 0 800 600" style="enable-background:new 0 0 800 600;" xml:space="preserve">
<style type="text/css">
	.st0{fill:#808080;}
	.st1{font-family:'Roboto-Regular';}
	.st2{font-size:14px;}
</style>
<g id="Sudan">
	<path class="st0" d="M118.507,482.98l1.501-5.494l0.242-0.39l0.606-0.671l0.107-0.425l0.02-0.788l0.127-0.773l0.238-0.701
		l0.646-1.374l0.17-0.693l-0.074-1.135l-0.033-0.512l-0.97-2.9l-0.519-2.773l-0.551-0.475l-0.899-0.023l-3.648,0.389l-0.38-0.168
		l-0.012-1.178l-0.107-0.353l-0.986-0.93l-3.085-1.055l-1.319-0.656l-1.37-1.323l-1.172-1.656l-0.768-1.838l-0.178-1.874
		l2.139-12.061l0.677-1.986l0.115-0.69l-0.044-0.609l-0.194-0.192l-0.325,0.567l-0.511-0.318l-1.497,0.271l-2.491,0.79l-0.42,0.32
		l-0.23,0.124l-0.246,0.099l0.986-4.308l0.036-0.478l-0.028-0.478l-0.099-0.468l-2.816-8.749l-1.267-2.006l-0.079-0.481l0.883-1.294
		l1.909-4.514l-0.507-0.501l-3.921-1.478l-4.8-3.217l-1.097,1.644l-1.232,1.188l-1.465,0.82l-1.806,0.538l-1.497,0.207l-1.628-0.016
		l-1.58-0.302l-1.347-0.664l-0.792-0.779l-1.505-2.854l-1.042-1.311l-0.162-0.447l0.091-0.248l0.614-1.224l0.962-2.933l3.149-6.034
		l1.109-1.542l1.315-1.269l0.677-0.379l4.115-1.65l0.634-0.446l3.537-3.761l1.354-1.793l0.321-1.645l-0.459-0.901l-1.355-1.652
		l-0.499-0.941l-0.17-0.757l-0.024-2.268l-0.562-1.527l-2.444-2.294l-0.681-1.527v-0.88l0.075-0.611l-0.131-0.578l-0.606-0.786
		l-0.895-0.852l0.048-0.354l0.935-1.543l3.12-3.992l0.378-0.483l0.923-0.941l1.105-0.743l6.083-2.918l0.741-0.507l1.422-1.342
		l0.871-0.491l1.026-0.201l0.891-0.355l0.57-0.675l0.051-1.159l-0.261-1.27l-0.345-0.769l-0.681-0.428l-2.162-0.383l-0.638-0.344
		l-0.459-0.583l-0.349-0.855l-0.111-0.469l0.04-0.311l0.341-0.674l0.166-0.167l0.519-0.243l0.194-0.198l0.04-0.293l-0.139-0.231
		l-0.19-0.21l-0.127-0.237l-0.543-4.254l-0.297-0.541l-1.18-0.888l-0.875-1.465l0.721-1.409l1.549-1.187l1.636-0.8l7.699-2.078
		l0.392-0.287l0.186-0.553l-0.067-0.352l-0.578-1.265l-0.214-0.694l-0.313-2.175v-1.022l0.309-0.614l1.402-0.954l0.76-0.712
		l0.218-0.655l0.036-0.743l0.202-0.966l0.448-0.824l3.454-3.644l0.757-0.63l0.875-0.484l1.299-0.511l0.297-0.362l1.715-3.174
		l0.293-0.884l0.487-4.62l-0.075-1.329l-0.38-1.24l-0.824-1.125l-0.82-0.893l-0.642-1.027l-0.281-1.145l0.277-1.241l0.725-0.896
		l3.022-1.889l2.452-2.995l1.002-0.699l0.943-0.118l1.822-0.228l5.893,1.259l2.883-0.28l5.03-1.864l2.515-0.551l4.4,0.006
		l4.658,0.71l4.464,1.545l1.038,0.045l0.451-1.197v-0.031v-2.298l-0.004-9.255l-0.012-9.266l-0.008-9.277l-0.004-9.288l-0.008-9.302
		l-0.008-9.309l-0.008-9.323l-0.008-9.335l-0.004-9.347l-0.012-9.359l-0.008-9.371l-0.004-9.382l-0.008-9.396l-0.008-9.409
		l-0.008-9.423l-0.008-9.436v-5.079v-5.079v-5.082v-5.088h6.175l3.275,0.004l4.329,0.001l5.125,0.004l4.773,0.005l4.681,0.001
		l5.592,0.003h3.862l0.083-0.009l0.083-0.009l0.083-0.01l0.087-0.013l0.036-0.061l0.036-0.063l0.036-0.061l0.036-0.063v-0.258
		v-4.554l0.004-3.882v-3.886l0.004-3.886l0.004-3.887v-5.099v-5.104l0.004-5.108v-5.112v-5.116l0.004-5.118l0.004-5.125V60.14
		v-5.132V49.87l0.004-5.145V39.58l3.727,0.002h3.731h3.731h3.735h3.727l3.729,0.002h3.731h3.727h3.727l3.731,0.002l3.735,0.002
		h3.727h3.731l3.727,0.002h3.727h3.731h3.731l3.731,0.002l3.727,0.002h3.731h3.727h3.731h3.731l3.727,0.002h3.731h3.731h3.731h3.731
		h3.727l3.731,0.002l3.731,0.002h3.731h3.725l3.733,0.002h3.731h3.725h3.733h3.731h3.731l3.731,0.002l3.727,0.002h3.731h3.731h3.727
		h3.725l3.733,0.002h3.731h3.731h3.731l3.727,0.002l3.727,0.002h3.731h3.725h3.737h3.731l3.727,0.002h3.727h3.731h3.731h3.727h3.733
		l3.733,0.002l3.731,0.002h3.725h1.467l0.507-0.305l1.889-3.884l0.132-0.272l1.729-3.551l0.99-1.091l0.717-0.385L446.623,30
		l0.737,0.115l0.705,0.359l0.844,0.83l0.341,0.92l-0.048,1.035l-0.887,2.651l-1.224,3.67l2.27-0.001l1.037-0.001h3.921h3.925h3.921
		h3.925h3.921h3.925h3.921h3.925h3.921h3.121h0.802h3.925h3.927h3.921h3.925h3.921h3.923l0.819,0l8.094-0.002h8.917h8.915h8.679
		h0.241h8.915l8.915-0.002l8.919-0.002h8.915h8.915h8.915l8.919-0.002h8.915h8.919l8.915-0.002l8.915-0.002h8.958l-0.115,0.621
		l-0.103,0.193l-0.162,0.081l-0.611,0.086l-0.677,0.242l0.914,0.693l0.368,0.548l0.025,4.99l0.867,5.668l-0.343,1.144l0.543,0.374
		l0.125,0.481l0.025,0.507l0.237,0.453l0.424,0.436l0.278,0.396l2.055,4.948l4.965,7.726l3.271,3.122l4.079,5.246l0.29,0.688
		l-0.081,0.802l-0.265,0.708l-0.483,0.339l-0.736-0.309l-0.773,0.58l-0.692-0.583l-1.048-1.833l-0.262-0.356l-0.287-0.515
		l-0.112-0.458l0.268-0.201l0.499,0.144l0.274,0.338l0.175,0.411l0.231,0.358l0.879,0.685l0.518,0.215l0.331-0.185l-0.081-0.341
		l-0.945-1.088l-0.599-1.593l-0.415-0.572l-0.605,0.201l-1.073-0.816l-0.312,0.433l-0.299-0.075l-0.25-0.401l-0.156-0.542
		l0.094-0.497l0.25-0.477l0.075-0.485l-0.418-0.505l-1.042-0.228l-0.63,0.689l-0.253,1.094l0.09,0.993l0.193,0.231l0.474,0.032
		l0.094,0.272l-0.131,0.49l-0.131,0.351l0.168,1.043l-0.012,0.481l-0.156,0.466l-0.384,0.388l-0.39,0.12l-0.265,0.217l-0.009,0.678
		l0.196,0.368l1.113,1.311l1.023,2.415l0.487,2.569l0.349,5.405l0.555,2.541l1.703,4.888l0.094,2.661l-0.106,0.651l-0.203,0.647
		l-0.371,0.391l-1.166-0.17l-0.131,0.528l0.143,1.215l-0.287,2.905l0.275,1.653l0.013,0.605l0.905,2.392l0.307,1.44l0.204,1.335
		l0.204,1.955l-0.584,1.547l0.013,0.276l-0.14,0.448l-0.468,0.586l-0.178,0.383l-0.025,1.099l0.281,1.387l2.426,6.458l0.225,1.379
		v2.654l-0.075,0.729l-0.203,0.444l-0.639,0.911l-0.119,0.619l0.271,2.45l-0.059,0.768l0.059,0.341l0.15,0.386l0.614,1.054
		l0.786,2.321l1.519,8.63l0.309,4.188l0.14,0.485l0.321,0.279l0.352,0.216l0.234,0.29v0.271l-0.2,0.531l-0.016,0.281l0.932,1.311
		l0.46,2.021l0.797,2.601l0.521,1.693l0.321,2.096l0.508,0.735l0.827,1.544l0.886,1.535l1.263,1.173l0.212,0.471l0.346,0.445
		l0.43,0.24l0.465-0.152l0.43-0.252l0.284,0.071l2.288-0.347l1.273-0.575l0.178,0.747l0.855,0.459l0.711,0.135l0.786-0.054
		l0.245,0.465l0.09,0.659l0.617,0.57l-0.288,1.563l0.596-0.324l0.443-0.141l0.431,0.341l0.627,0.652l4.321,1.237l1.588,1.539
		l1.071,1.816l1.66,1.654l1.055,0.702l1.668,0.658l0.483,0.571l-0.482,0.702l-1.009,0.527l-0.262,1.404l1.054,2.279l1.841,1.708
		l2.06,0.482l1.533-0.263l0.219-1.49l0.77-0.233l1.338-0.805l0.237,0.427l-0.324,0.34l-0.54,0.296l-0.396,0.291l-0.056,0.325
		l0.031,0.443l-0.1,0.483l-0.449,0.453l-0.58,0.167l-0.511-0.033l-0.427,0.036l-0.29,0.356l0.499-0.005l1.335-0.246l0.505,0.092
		l0.346,0.217l0.318,0.263l0.402,0.23l0.505,0.13l1.079,0.133l0.521,0.177l0.58,0.103l0.396-0.187l0.056-0.32l-0.474-0.289
		l0.605-0.558l0.755,0.778l1.229,1.984l-0.359,0.541l0.636,0.399l0.964,0.074l0.617-0.438l0.405,0.62l0.131,1.6l0.25,0.51
		l0.758,0.121l0.371-0.612l-0.062-0.92l-0.543-0.792l0.649,0.402l1.597,1.663l0.253,0.62l-0.003,0.636l0.094,0.394l0.399,0.9
		l-0.087,0.364l-5.453,4.595l-1.061,1.561l-2.309,6.164l-1.057,1.725l-0.776,0.605l-1.901,0.929l-0.661,0.613l-0.194,0.794
		l0.047,0.852l-0.099,0.796l-0.646,0.648l-0.907,0.137l-0.677-0.419l-0.582-0.596l-0.622-0.393l-1.351,0.434l-0.226,0.037
		l-0.174,0.359l0.048,0.255l0.099,0.276l-0.012,0.422l-0.4,0.768l-0.634,0.554l-0.574,0.006l-0.218-0.868l0.055-0.804l-0.04-0.669
		l-0.36-0.401l-0.879-0.004l-0.899,0.33l-0.037,0.025l-2.589,1.753l-1.2,1.555l-0.753,0.581l-0.915,0.212l-0.875-0.27l-1.149-1.113
		l-0.78-0.218l-1.339,0.725l-1.667,3.022l-1.564,0.82l-1.549,0.218l-5.074,1.587l-0.412,0.253l-0.095,0.458l0.428,1.837l0.036,0.73
		l-0.178,1.673l-0.242,0.821l-0.84,1.509l-0.182,0.895l-0.317,0.8l-2.159,2.598l-3.588-1.019l-1.105,0.095l-1.822,1.135
		l-1.161,0.075l-0.57-0.085l-2.079,0.34l-0.38-0.064l-1.481-0.915l-0.396-0.147l-0.986-0.17l-0.685-0.282l-0.578-0.402l-0.61-0.271
		l-0.78,0.104l-0.253,0.3l-0.004,0.018l-0.079,0.32l0.087,0.356l0.76,1.064l0.139,0.766l-0.178,0.774l-0.931,1.346l0.131,0.433
		l0.4,0.393l0.333,0.495l0.095,0.509l-0.071,1.608l0.051,0.153l0.226,0.36l0.047,0.234l-0.071,0.165l-0.277,0.321l-0.071,0.178
		l-0.147,2.395l-0.943,2.403l-0.412,0.552l-1.263,0.916l-0.582,0.529l-0.349,0.754l-0.063,0.709l0.071,1.304l-0.115,0.773
		l-0.471,1.595l-0.028,0.549l0.261,0.925l0.499,0.706l0.602,0.644l0.543,0.733l0.041,0.115l0.245,0.692l-0.02,0.706l-0.135,0.716
		l-0.055,0.852l0.198,0.84l0.697,1.618l0.103,0.85l-0.392,1.015l-1.604,1.671l-0.622,1.044l-1.275,3.639l-1.731,4.957l-1.838,5.253
		l-1.03,1.702l-1.893,1.973l-0.471,0.879l-2.079,7.624l-0.099,1.681l0.527,1.735l-1.256,0.846l-0.748,1.228l-1.941,5.782
		l-0.697,1.095l-2.82,2.759l-0.309,0.691l-0.055,0.871l0.44,3.765l0.78,6.646l0.258,2.192l0.451,3.842l0.582,4.974l0.578,4.904
		l0.847,7.271l-3.442,10.761l-0.17,0.841l0.016,1.004l0.21,0.969l0.665,1.972l0.107,1.968l-0.698,1.735l-1.591,3.95l-0.139,0.793
		l-0.135,2.231l-0.352,1.116l-5.691,8.251l-3.703,12.958l0.055,0.752l0.305,0.627l0.123,0.336l0.012,0.337l-0.345,0.578l-0.57,0.573
		l-0.444,0.672l0.036,0.872l0.895,1.567l0.166,0.586l0.008,0.959l-0.753,4.366l-0.329,0.771l-0.598,0.242l-1.046-0.29l-0.349-0.191
		l-0.222-0.167l-0.253-0.13l-0.467-0.079l-0.325,0.012l-11.557,1.681l-0.982,0.327l-0.053,0.025l-0.525,0.243l-0.139,0.124
		l0.008,0.209l-0.261,1.003l-0.055,0.42l-0.139,0.402l-0.38,0.418l-0.333,0.142l-0.741,0.057l-0.329,0.136l-0.345,0.392
		l-7.208,12.094l-0.408,1.096l-0.103,1.092l-0.111,0.49l-0.352,0.531l-0.4,0.328l-0.836,0.44l-0.376,0.32l-0.289,0.444l-0.681,1.714
		l-0.38,2.149l-0.333,0.931l-0.749,0.867l-1.434,0.83l-0.345,0.34l-0.111,0.362l-0.006,0.181l-0.022,0.714l-0.079,0.383
		l-1.156,1.303l-2.568,0.993l-0.839,0.324l-1.481,0.969l-0.586,0.757l-0.523,0.9l-0.416,0.959l-0.269,0.931l-0.024,0.791
		l0.289,1.482l-0.071,1.599l0.277,0.805l0.8,1.593l0.095,0.732l-0.143,0.77l-4.828,10.715l-0.111,0.845l0.372,1.06l0.669,0.751
		l0.487,0.8l-0.147,1.216l-2.531,7.47l-0.028,0.429l0.368,0.509l1.137,0.839l0.21,0.586l-0.293,1.336l-0.646,0.931l-2.071,1.588
		l-0.697,0.664l-0.159,0.465l-0.004,0.473l-0.23,0.694l-0.491,0.648l-0.42,0.053l-0.467-0.138l-0.646,0.065l-0.471,0.416
		l-0.511,1.198l-0.309,0.312l-0.4-0.151l-0.055-0.569l0.154-1.173l-0.242-0.591l-0.507-0.447l-1.125-0.729l-4.638-4.105l-0.471-0.19
		l-0.649,0.248l-4.618,3.204l-0.661,0.579l-0.606,0.819l-1.481,2.888l-3.299,4.69l-0.297,1.381l0.17,1.612l1.865,8.573l0.04,1.756
		l-0.325,1.647l-0.123,0.226l-0.368,0.382l-0.107,0.208l-0.008,0.44l0.131,0.949l-0.059,0.431l-0.867,1.301l-2.258,2.105
		l-4.741,13.47l-1.2,5.773l0.146,2.975l-6.509-0.027l-0.119-0.05l-0.113-0.112l-0.107-0.187l-0.127-0.254l-0.279-1.103l-0.143-1.718
		l0.238-2.97l0.804-3.531l2.462-4.963l0.125-0.41l0.034-0.232v-0.269l-0.23-0.884l-0.285-0.766l-0.143-1.159l0.428-2.579
		l0.042-0.799l-0.059-1.03l-0.192-0.653l-1.717-4.301l-0.57-0.682l-8.299-6.852l-8.299-6.856l-3.034-3.717l-0.327-0.255l-0.41-0.199
		l-8.426-3.123l-0.41-0.314l0.054-0.46l0.261-0.594l1.012-1.804l0.143-0.478l0.143-0.73l-1.9-14.472l-1.9-14.49l0.012-0.571
		l0.172-0.379l0.143-0.233l0.503-0.618l0.438-0.64l0.499-1.117l0.131-0.42l0.521-5.184l-0.04-4.543l2.224-7.579l0.238-3.225
		l-18.296-0.227l-0.113,0.166l-0.012,0.198l0.046,0.227l0.026,0.243l-0.012,0.509l-0.148,0.939l-0.036,0.497l0.018,0.506
		l0.279,1.817l0.481,1.366l0.077,0.455l0.024,0.498l-0.059,0.944l-12.731,0.057l-12.732,0.057l10.08,11.383l0.119,0.232l0.178,0.618
		l0.071,0.454l0.19,4.002l-0.541,6.329l0.117,4.067l0.59,2.64l2.729,5.195l-0.178,0.97l-0.638,1.224l-9.028,7.715l-9.028,7.71
		l-0.499,0.727l-2.517,6.424l-2.384,3.736l-1.063,1.07l-4.192,5.24l-8.239,8.212l-8.239,8.206l-2.699,1.101l-8.206,0.449l-0.013,0
		l-4.328,0.12l-0.493,0.124l-0.739,0.281l-0.452,0.425l-0.535,0.316l-0.529-0.172l-0.614-0.446l-10.143-9.19l-9.036-5.808
		l-9.036-5.81l-1.731,1.057l-10.226,4.996l-2.111,1.296l-1.166,0.917l-0.059,5.591l-1.784,2.843l-3.228,3.099l-8.842,1.964
		l-4.602,1.689l-4.705,2.507l-0.766,0.628l-2.899,2.256l-2.472,2.453l-0.789,1.493l-0.053,1.653l0.158,1.386l0.473,0.959l-0.049,0
		l-15.28-0.133l-15.279-0.133l-1.841-2.079l-3.909-8.178l-0.394,0.157l-0.63,0.112l-3.784,0.202l-4.909-0.724l-0.214,0.022
		l-0.798,0.217l-0.222,0.024l-3.113-0.396l-5.478,0.022l-1.758-0.311l-9.919,0.232l-14.795,5.047l-0.41,0.036l-2.218-0.181
		l-0.952-0.44l-1.687-1.106l-7.231-8.522l-7.231-8.528l-2.945-1.123l-0.012-0.013l-0.541-0.571l-0.452-0.579l-2.289-3.781
		l-0.226-0.305l-0.137-0.129l-0.244-0.197l-0.107-0.054l-1.042-0.306l-0.582-0.257l-1.38-0.816l-0.297-0.247l-0.249-0.275
		l-0.101-0.166l-0.071-0.215l-0.232-6.028l-0.048-0.214l-0.077-0.181l-0.196-0.324l-1.665-2.085l-0.143-0.107l-0.416,0.039
		l-1.713,0.454l-0.804,0.396l-0.339,0.094l-0.309,0.036l-1.539-0.06l-0.222,0.036l-0.606,0.169l-0.873,0.143l-1.238,0.012
		l-0.22,0.033l-1.648,0.411l-2.83,1.001l-0.119,0.018l-0.481,0.139l-0.434,0.069l-1.541-0.054l-0.463,0.042l-0.436,0.082
		l-0.57,0.196l-0.362,0.169l-0.392,0.125l-0.457,0.048l-0.245,0.003l-0.452,0.051l-0.196,0.06l-0.713,0.338l-0.208,0.036
		l-0.222,0.003l-0.416-0.06l-0.214,0.018l-0.368,0.139l-0.208,0.048l-0.232-0.006l-0.226-0.039l-0.22-0.069l-0.386-0.172
		l-0.21-0.069l-0.457-0.079l-0.261,0.027l-0.273,0.066l-0.345,0.142l-0.255,0.033l-0.448-0.057l-0.22,0.006l-0.927,0.362
		l-0.44,0.073l-0.982-0.079l-0.41,0.086l-0.558,0.223l-0.602,0.179l-0.238,0.099l-0.273,0.248l-0.38,0.465l-1.915,4.163
		l-0.101,0.414l-0.03,0.323l0.083,0.43l0.059,0.196l0.315,0.733l0.119,0.399l0.024,0.22l-0.012,0.241l-0.048,0.229l-0.416,1.144
		l-1.004,2.089l-0.22,0.68l-0.333,0.71l-0.323,0.443l-0.517,0.534l-1.051,1.44l-0.501,0.564l-1.325,0.809l-1.321,1.099l-0.327,0.196
		l-0.333,0.154l-0.416,0.075l-0.362,0.027l-0.139,0.034l-0.148,0.154l-0.131,0.247l-0.143,0.797l0.065,10.348l-0.071,0.458
		l-0.279,0.89l-2.349,2.653l-1.111,1.022l-0.305,0.449l-0.261,0.7l-0.737,7.419l-0.042,0.206l-0.148,0.376l-3.474,5.916
		l-0.232,0.582l-0.036,0.253v4.136l-0.214,0.259l-0.38,0.211l-1.879,0.632l-3.485,0.367l-0.873,0.181l-4.186,2.656l-1.16,0.55
		l-2.206,1.691l-0.232,0.313l-0.083,0.551l-0.171,0.245L166.522,570l-4-0.668l-1.085,0.182l-0.737-0.11l-1.525-0.637l-2.131,0.219
		l-2.424-0.556l-1.323,0.034l-1.204,0.558l-0.622,0.188l-1.232-0.337l-1.228,0.026l-0.499-0.199l-0.574-0.405l-0.602-0.257
		l-0.65-0.074l-0.705,0.142l-0.535,0.302l-0.903,0.694l-0.566,0.128l-0.784-0.359l-0.582-0.847l-0.317-1.038l0.02-0.932l0.503-1.01
		l1.58-1.791l0.65-1.068l0.471-2.206l0.059-1.35l-0.281-0.839l-0.673-0.032l-1.422,1.405l-1.049,0.084l-1.022-0.592l-0.503-0.79
		l-0.099-0.946l0.844-4.937l0.195-0.294l0.438-0.658l0.582-0.234l1.24,0.052l0.618-0.108l0.444-0.276l0.84-0.856l1.481-1.87
		l0.507-0.395l0.341-0.464l-0.056-0.567l-0.392-1.192l0.051-0.689l0.958-3.021l-0.02-0.258l-0.21-0.314l-0.226-0.088l-0.285,0.012
		l-0.289-0.491l-0.107-0.367l0.051-1.21l-0.079-0.511l-0.372-0.963l-0.024-0.425l0.475-1.123l1.418-2.191l0.519-1.149l0.19-1.49
		l-1.121-6.717l-0.796-1.739l-6.377-10.351l-6.377-10.36l-6.967-6.812l-3.98-2.82l-5.454-7.997L118.507,482.98z M670.498,86.523
		l0.396,0.287l0.134,0.098l0.168,0.529l-0.449,2.732l-0.281,0.66l-0.387,0.007l-0.393-0.936l-0.028-1.286l0.284-1.256
		L670.498,86.523z"/>
</g>

</svg>
