<?xml version="1.0" encoding="utf-8"?>
<!-- Generator: Adobe Illustrator 23.0.1, SVG Export Plug-In . SVG Version: 6.00 Build 0)  -->
<svg version="1.1" xmlns="http://www.w3.org/2000/svg" xmlns:xlink="http://www.w3.org/1999/xlink" x="0px" y="0px"
	 viewBox="0 0 800 600" style="enable-background:new 0 0 800 600;" xml:space="preserve">
<style type="text/css">
	.st0{fill:#808080;}
	.st1{font-family:'Roboto-Regular';}
	.st2{font-size:14px;}
</style>
<g id="Zambia">
	<path class="st0" d="M671.636,94.009l0.116,3.157l0.254,0.732l0.518,0.43l0.325-0.112l0.356-0.263l0.62-0.028l0.358,0.218
		l0.772,0.721l0.474,0.224l0.022,1.475l-0.943,3.901l0.65,1.47l0.705,0.235l0.59-0.268l0.59-0.408l0.719-0.179l0.587,0.274
		l0.215,0.576l0.121,0.654l0.281,0.514l1.179,0.43l0.469-0.99l0.176-1.599l0.309-1.403l1.235,0.598l2.877,0.151l1.066,0.755
		l0.769,1.359l0.237,0.721l0.08,0.822l-0.149,0.581l-0.276,0.436l-0.174,0.509l0.143,0.799l0.504,0.766l1.336,0.828l0.584,0.632
		l0.772,1.471l0.457,0.654l0.639,0.571l0.65,0.347l1.973,0.727l0.347,0.42l0.838,2.137l0.342,1.511l-0.38,1.141l-1.582,2.468
		l-1.003,2.558l-0.281,1.366l-0.033,1.399l0.716,0.991l4.354,1.943l1.119,0.957l0.871,0.957l0.965,0.801l1.383,0.487l0.992,1.31
		l1.058,0.745l0.763,0.879l0.124,1.708l-0.336,3.03l0.193,1.3l1.4,3.345l0.452,0.633l1.488,1.334l0.408,0.465l1.042,2.432
		l0.824,0.953l1.452,0.191l0.008,1.424l0.378,0.987l0.046,0.532l0.017,0.2l0.019,0.216l-0.876,1.318l-0.827,0.757l-2.089,1.52
		l-0.684,0.308l-0.711,0.471l-2.596,2.928l-0.868,2.182l-0.587,0.942l-1.091,0.673l-0.81,0.152l-0.97,0.971l-0.7,0.32l-0.818-0.045
		l-1.766-0.348l-0.736,0.129l-0.741,0.297l-1.345,0.264l-0.722,0.247l-0.65,0.567l-1,1.526l-0.785,0.483l-0.65-0.017l-0.557-0.152
		l-0.499,0.174l-0.471,0.954l-0.047,0.78l0.422,0.298h0.667l0.733-0.107l0.772,0.662l0.402,1.712l0.165,1.642l0.16,1.598
		l0.518,1.634l0.769,1.505l0.987,1.365l1.188,1.196l1.709,3.011l-0.463,1.624l-0.733,1.523l-3.742,5.794l-0.08,0.354l0.185,0.613
		l-0.072,0.332l-0.298,0.253l-0.816,0.354l-0.242,0.292l-0.088,0.765l0.105,0.703l-0.011,0.697l-0.449,0.742l-1.359-1.125
		l-0.502,0.77l0.248,4.634l-0.061,0.669l-0.347,1.018l-0.783,1.693l0.176,0.422l0.893,0.332l0.887,0.006l0.937-0.118l0.871,0.152
		l0.722,0.827l0.314,0.878l0.606,8.848l-0.182,1.993l-0.706,2.055l0.005,0.873l0.601,1.194l0.21,0.777l-0.179,0.85l-0.306,0.867
		l-0.499,2.783l-2.097,4.981l-0.193,1.809l0.077,1.838l0.402,0.885l1.499,1.443l0.617,0.75l0.667,1.782l0.942,3.801l1.031,1.619
		l1.874,0.66l3.93-1.196l2.083,0.733l0.893-0.028l0.612,0.231l0.083,1.111l-0.479,0.88l-0.227,0.138l-1.394,0.849l-0.386,0.903
		l-0.81,0.147l-0.242,0.406l-0.044,1.343l-0.471,0.649l-1.618,0.655l-0.606,0.559l-0.835,1.259l-1.094,1.107l-1.218,0.773
		l-1.18,0.271l-0.424-0.141l-0.446-0.282l-0.518-0.26l-0.667-0.051l-1.416,0.237l-0.43,0.186l-0.612,0.7l-0.887,1.875l-0.747,0.52
		l-0.537,0.175l-0.325,0.198l-0.237,0.198l-0.27,0.181l-0.32,0.322l-0.176,0.373l-0.254,0.271l-0.546,0.023l-0.226-0.277
		l-0.634-1.209l-0.372-0.378l-0.51-0.141l-0.402,0.045l-0.843,0.226l-0.424,0.248l-0.485,0.412l-0.463,0.22l-0.375-0.356
		l-0.226-0.429l-0.287-0.299l-0.369-0.085l-0.435,0.186l-0.755,0.672l-0.562,0.74l-1.637,3.271l-1.924,2.881l-0.716,1.486
		l-0.187,0.955l0.314,4.013l0.347,0.594l1.439,0.91l1.309,1.216l0.455,1.329l-0.248,1.521l-1.461,3.343l-0.832,6.06l0.063,0.951
		l0.223,0.917l0.413,0.928l0.854,1.259l0.165,0.634l-0.287,0.764l-1.604,0.47l-1.326,1.693l-0.973,2.135l-0.754,3.099l-0.712,2.928
		l-0.953,2.102l-1.516,0.816l-0.981,0.153l-0.446,0.595l-0.116,0.861l0.033,0.997l-0.237,1.241l-0.694,0.488l-1.965,0.295
		l-0.714,0.459l-1.438,1.236l-0.672,0.108l-0.992-0.34l-0.766-0.074l-0.513,0.425l-0.232,1.14l0.628,1.741l1.687,0.386l1.957,0.017
		l1.411,0.63l2.023,2.87l0.298,0.658l-0.455,0.596l-1.959,0.936l-0.573,0.613l0.303,1.481l1.538,0.692l1.968,0.397l1.634,0.607
		l0.785,0.687l2.654,3.287l0.212,0.835l0.116,0.818l0.325,0.863l0.441,0.369l0.964-0.051l0.43,0.221l0.303,0.466l0.022,0.29
		l-0.099,0.312l-0.187,2.772l0.276,0.835l1.246,1.613l0.978-0.233l1.667-2.727l0.722-0.818l0.744-0.398l1.849-0.545l0.482-0.477
		l0.513-1.391l0.535-0.307l0.761,0.636l1.659,3.146l0.909,1.102l-3.875,1.329l-4.646,1.596l-6.707,2.307l-9.182,3.154l-8.967,3.087
		l-8.069,2.775l-5.605,1.928l-4.96,1.706l-4.282,0.791l-2.042,0.632l-4.026,1.866l-5.352,1.781l-7.016,2.339l-7.622,2.533
		l-3.665,1.942l-4.96,2.631l-4.575,1.709l-5.55,1.356l-6.867,1.675l-5.522,1.35l-0.953,0.074l-7.545,1.744l-5.297,1.225
		l-7.402,2.725l-4.541,1.682l-5.666,2.087l-4.963,2.487l-3.949,1.985l-4.668,0.565l-0.876,0.234l-0.002,0.028l-0.031,0.36
		l0.38,1.649v2.465l0.259,2.392l1.99,6.904l1.323,2.634l1.736,1.137l0.766,0.291l0.672,0.726l0.557,0.983l0.375,1.023l0.226,1.137
		l0.138,3.602l0.168,0.635l0.785,1.098l0.171,0.532l-0.143,0.555l-0.981,1.916l-0.347,1.218l0.116,0.767l1.521,1.625l0.281,0.435
		l0.612,1.631l-0.124,0.137l-0.752,0.309l-2.111,0.858l-1.527,0.052l-1.699-0.741l-0.859-0.375l-1.345-0.189L529,434.192
		l-0.805,0.698l-0.419,0.28l-0.849,0.189l-0.623-0.223l-1.367-0.939l-2.122-0.469l-2.138,0.315l-2.122,0.595l-2.111,0.338
		l-2.301-0.263l-4.572-1.253l-2.37-0.223l-1.229,0.269l-2.188,1.019l-2.304,0.366l-3.053,1.03l-1.295,0.183l-1.094-0.166
		l-1.036-0.286l-1.138-0.149l-1.268,0.355l-1.984,1.7l-0.948,0.595l-4.608,0.412l-0.805,0.177l-11.767,5.463l-1.885,1.994
		l-0.485,0.315l-1.075,0.269l-1.042,0.642l-0.854,0.756l-0.523,0.602l-1.135,2.161l-0.678,0.659l-1.295,0.241l-2.414,0.046
		l-1.146,0.212l-0.236,0.11l-0.773,0.36l-1.786,1.76L456,455.806l-0.165,0.384l-0.733,1.135l-0.165,0.614l0.11,0.505l0.242,0.39
		l0.248,0.31l0.132,0.281l-0.298,1.887l-0.689,2.306l-0.287,2.215l0.909,1.584l-1.273,2.974l-0.187,1.2l0.198,0.959l0.882,2.326
		l0.011,1.264l-1.29,2.126l-0.209,0.454l-0.353,2.011l-0.728,0.862l-2.111,1.609l-0.435,0.948l-1.053,1.023l-0.455,0.414
		l-0.75,0.121h-1.496l-2.53,0.471l-19.367,7.668l-3.604,2.342l-5.258,4.398l-4.849,2.109l-8.235,3.582l-2.756,1.671l-2.111,2.317
		l-7.259,11.008l-0.871,1.945l-1.086,4.438l-1.449,2.812l-2.827,2.905l-5.451,5.015l-14.131,14.799l-0.54,0.816l-0.088,0.573
		l0.066,1.389l0.132,1.32l-1.791,2.224l-1.987,1.952l-1.585,1.529l-1.45,0.799l-0.799,0.232l-2.513,0.116l-0.56,0.232l-1.954,1.298
		l-1.268-0.417l-5.026,2.336l-1.295,0.156l-0.86,0.22l-0.695,0.423l-1.527,1.42L339.899,570l-0.763-0.139l-3.031-0.985l-0.86-0.446
		l-0.739-0.632l-0.827-0.939l-0.7-0.579l-0.887-0.359l-1.411-0.249l-2.221-0.713l-4.101-2.26l-2.447-0.469l-1.984,0.301
		l-0.386-0.093l-0.336-0.336l-0.435-0.313l-0.507-0.237l-2.453-0.29l-0.485-0.18l-0.281-0.348l-0.303-0.521l-0.38-0.469
		l-0.491-0.197l-0.474,0.249l-1.896,1.477l-0.474,0.266l-1.234,0.237l-0.898,0.504l-0.926,0.237l-0.32,0.128l-0.055,0.214
		l0.105,0.713l-0.05,0.22l-0.75,0.214l-0.998,0.029l-0.849,0.191l-0.32,0.684l-0.364-0.388l-2.943,1.536l-0.617,0.087l-2.265-0.087
		l-3.246-1.536l-0.54-0.649l-0.391-0.915l0.072-0.799l0.86-0.313l-0.744-0.961l-2.414-1.037l-0.518-0.869l-0.463-0.585l-1.069-0.695
		l-1.179-0.585l-1.995-0.533l-0.65-0.585l-0.683-0.446l-1.301,0.139l-2.827,1.245l-3.582,0.701l-0.314,0.127l-0.469,0.515
		l-0.303,0.122l-0.336-0.064l-0.501-0.289l-0.276-0.064h-4.015l-0.573-0.104l-1.764-0.66l-1.664,0.075l-0.518-0.075l-1.047-0.51
		l-1.626-1.279l-0.998-0.469l-0.369-0.382l-0.336-0.706l-0.59-0.625l-0.722-0.44l-0.733-0.18l-0.904-0.046l-0.397-0.174
		l-0.689-0.926l-0.287-0.208l-0.601-0.318l-0.231-0.237l-0.083-0.324l0.061-0.712l-0.165-0.318l-0.788-0.833l-0.38,0.023
		l-0.469,0.636l-0.138-0.382l-0.264-0.382l-0.38-0.301l-0.49-0.116l-0.099-0.26l-0.447-1.648l-0.176-0.098l-0.97-0.873l-0.149-0.214
		l-0.623-0.006l-0.386-0.081l-0.281-0.214l-0.331-0.428v-0.387l0.358-0.954l-0.193-0.185l-0.546,0.087l-0.998,0.324l-0.507-0.029
		l-0.849-0.642l-0.612-0.884l-0.06-0.043l-0.64-0.46l-1.086,0.503l-0.678-0.994l-1.422-0.665l-3.665-0.746l-1.714,0.075
		l-0.562-0.121l-0.364-0.26l-0.264-0.26l-0.281-0.121l-4.553-0.728h-2.397l-0.518,0.173l-0.369,0.381l-0.287,0.381l-0.584,0.335
		l-0.81,0.74l-0.562,0.248l-0.507,0.035l-0.468-0.069l-0.849-0.318l-0.463-0.347l-0.331-0.387l-0.43-0.312l-1.356-0.243
		l-1.009-0.503l-1.598-0.3l-2.254-0.815l-0.965-0.179l-0.942,0.133l-2.232,0.636l-0.43,0.202l-0.59-0.341l-2.822-0.098l-0.992-0.15
		l-0.976,0.075l-1.576,0.324l-2.282,0.474l-2.282,0.474l-2.282,0.474l-2.287,0.468l-2.276,0.474l-2.282,0.474l-2.282,0.468
		l-2.287,0.474l-2.287,0.474l-2.282,0.468l-2.282,0.474l-2.282,0.474l-2.276,0.468l-2.282,0.474l-2.293,0.474l-2.282,0.474
		l-1.587,0.33l-1.003,0.023l-1.868,0.376l-2.172,0.428l-0.303-0.723l-0.044-0.717l0.38-0.804l-1.218-1.018l-1.003-1.237
		l-1.091-0.804l-0.788-0.381l-0.777-0.231l-1.731-0.145l-0.909,0.127l-0.909,0.237l-0.92,0.104l-0.92-0.26l-0.65-0.699l-0.033-0.798
		l0.116-0.873l-0.154-0.896l-0.557-0.601l-2.359-0.924l-1.273-1.046l-1.312-1.513l-1.009-1.663l-0.413-1.501l-0.32-0.635
		l-2.227-2.419l-0.772-0.445l-2.541-0.698l-3.219-1.408l-1.438-0.952l-2.122-1.933l-1.659-0.894l-0.7-0.6l-0.496-0.825l-0.59-2.601
		l-0.749-1.488l-1.08-1.459l-2.392-2.611l-0.744-0.553l-3.18-1.297l-0.678-0.006l-0.314-0.242l-0.226-0.478l0.006-0.974l-0.11-0.449
		l-0.678-0.709l-1.687-0.53l-0.766-0.472l-0.468-0.708l-0.568-1.567l-3.864-6.178l-0.413-0.483l-0.496-0.299l-0.854-0.161
		l-0.298-0.15l-0.287-0.334l-0.364-0.668l-0.838-1.145l-0.353-0.731l-0.523-0.529l-1.422-0.247l-0.209-0.126l-0.397-0.431
		l-0.259-0.155l-0.182,0.103l-0.193,0.173l-0.512,0.127l-0.805,0.311l-0.413,0.046l-0.722-0.253l-4.591-3.773l-0.347-0.759
		l-0.143-0.943l-0.231-0.805l-0.579-0.345l-1.02-0.138l-0.22-0.402l0.138-0.598l0.039-0.759l-0.298-0.799l-0.915-1.546l-0.248-0.69
		l0.044-0.931l0.281-1.04l0.441-0.977l0.496-0.712l0.105-0.695l-0.876-0.414l-1.775-0.408l-0.088-0.333l-0.028-1.229l-0.088-0.54
		l-0.182-0.247l-0.639-0.563l-0.237-0.327l-0.237-0.815l-0.094-0.706l-0.193-0.7l-0.568-0.781l0.435,0.046l1.35-0.046l-1.857-3.008
		l-1.416-1.79l-0.121-1.199v-0.895v-3.367v-3.521l-0.05-0.155l0.011-2.505l0.006-5.662l0.017-5.654l0.011-5.651l0.006-5.654v-2.437
		v-1.676v-1.172v-2.201l-0.006-8.332l-0.006-8.327l-0.005-8.32l-0.006-8.315l-0.006-8.309l-0.006-8.303l-0.006-8.303l-0.006-8.292
		l-0.006-8.281l-0.006-8.287l-0.006-8.27l-0.002-3.302l-0.003-4.974l-0.006-8.265l-0.005-8.266l-0.006-8.246l-0.006-8.25h6.63h6.63
		h6.625h6.625h6.625h6.625h6.63h6.625h6.63h6.63h6.625h6.63h6.63h6.625h6.63h6.619h1.725l-0.628-1.991l-0.909-1.736l-1.185-1.572
		l-2.904-3.002l-1.086-1.532l-0.485-1.752l0.353-2.164l1.036-2.464l1.014-4.033l0.959-3.806l0.645-1.575l2.414-3.557l1.802-2.647
		l0.435-0.931l0.149-0.931l-0.524-2.46l-0.22-3.334l-0.546-1.376l-1.35-1.421l-1.157-1.692l-0.281-2.441l0.358-7.648l0.32-7.019
		l1.146-2.652l0.088-0.552l-0.248-1.34l-0.226-4.07l-0.457-1.317l-0.557-1.036l-0.408-1.052v-1.379l0.281-1.075l0.948-2.172
		l1.477-2.29l0.231-0.641l0.006-0.883l-0.138-1.311l0.016-0.686l0.127-0.602l0.579-0.81l1.67-1.31l0.512-0.737l-0.033-0.652
		l-2.353-5.25l-0.309-1.388l0.221-7.742l-1.042-0.169l-0.303-0.753l0.237-2.095l-0.044-3.01l0.193-0.971l0.342-1.044l-0.198-0.797
		l-1.036-1.6l-0.336-0.921l-0.364-2.666l1.813,0.062l2.502,0.483l2.298,0.842l1.213,1.162l0.006,0.472l-0.298,0.971l-0.039,0.5
		l0.132,0.595l0.375,1.095l0.099,0.623l-0.088,1.808l0.347,0.674l1.075-0.157l1.075-0.348l0.893,0.028l1.973,0.584l1.053,0.152
		l1.979-0.006l0.998,0.129l1.202,0.533l1.543,0.988l1.345,1.191l0.601,1.106l-0.187,0.629l-0.446,0.477l-0.397,0.522l-0.039,0.77
		l0.303,0.629l0.904,0.815l0.369,0.466l0.281,0.955l0.066,1.135l-0.094,1.163l-0.204,1.056l-0.413,0.877l-1.708,2.709l-0.667,0.708
		l-2.221,0.68l-0.684,0.579l0.452,0.978l0.86,0.405l2.221,0.023l0.987,0.169l1.19,0.72l1.808,1.67l1.069,0.517l1.235,0.107
		l1.135-0.219l2.227-0.838l0.524-0.039l0.623,0.051l0.562-0.09l0.347-0.45l0.171-0.613l0.22-0.517l0.32-0.45l0.463-0.422l0.48-0.214
		l1.196-0.264l0.562-0.27l0.524-0.534l0.975-1.327l0.573-0.545l2.05-0.849l4.023-0.011l2.067-0.45l3.963-1.973l2.232-0.691
		l2.045,0.18l7.628-0.691l3.186-0.68l5.054-2.54l1.681-0.281l0.65,0.579l0.11,1.219l-0.066,1.394l0.11,1.113l-0.028,0.528
		l-0.413,0.371l-1.113,0.433l-0.617,0.483l0.292,0.467l0.595,0.467l0.276,0.466l-0.452,1.001l-0.623,0.5l-0.446,0.607l0.055,1.333
		l0.408,1.102l1.207,2.114l0.397,0.956l-0.072,0.517l-0.728,0.866l-0.215,0.518l-0.011,0.506l0.154,0.967l1.438,4.444l0.502,0.917
		l0.435,0.473l0.375,0.214l0.452,0.062l0.678-0.006l0.705,0.146l0.342,0.36l0.254,0.461l0.468,0.445l3.053,1.469l0.937,0.827
		l0.088,0.281l0.025,0.293l-0.025,0.293l-0.463,1.362l0.336,0.743l0.807,0.366l1.047-0.039l0.496-0.265l0.325-0.366l0.375-0.321
		l0.672-0.096l0.573-0.18l0.21-0.507l0.154-0.557l0.419-0.349l2.441,0.084l1.83,1.176l1.687,1.537l2.039,1.188l0.981,0.18
		l3.07,0.023l0.59-0.068l1.058-0.501l0.391-0.101l0.579,0.101l0.27,0.186l0.204,0.259l2.91,2.376l1.141,0.439l0.761,0.563
		l0.733,1.695l0.937,0.434l0.689,0.096l9.204-0.13l1.196,0.462l1.08,0.693l1.08,0.518l1.918-0.124l1.102,0.529l0.628,0.034
		l0.595-0.253l1.047-0.721l0.551-0.237l1.984-0.332l2.039-0.056l1.268,0.394l0.909,0.704l0.816,0.817l0.981,0.755l1.907,0.625
		l4.321,0.299l2.006,0.423l1.025,0.603l0.909,0.71l0.92,0.428l1.086-0.242l0.807-0.8l0.62-0.935l0.81-0.682l1.367-0.017l2.491,0.27
		l2.265-0.49l2.056-1.189l1.863-1.82l1.047-2.112l0.215-4.46l0.518-2.151l0.816-1.199l0.788-0.754l0.551-0.833l0.094-1.458
		l-0.661-2.302l-0.03-1.035l0.719-0.776l0.463-0.067l1.174,0.174l0.529-0.023l2.017-0.664l2.282-0.197l1.527-0.585l0.347-0.051
		l0.909,1.311l0.557,2.487l0.232,2.662l-0.105,1.835l1.29,4.746l9.948,6.15l2.497,4.344l0.226,2.181l2.596,7.525l0.832,1.116
		l2.867,2.34l0.291,0.238l2.287,2.527l1.494,0.496l2.375,0.198l2.453-0.113l1.684-0.423l1.011-0.824l0.587-0.744l0.7-0.429
		l1.348,0.135l1.086,0.412l3.031,1.822l0.777,0.987l0.201,1.371l0.345,1.162l1.19,0.367l0.959-0.169l0.802-0.051l3.927,0.384
		l0.491,0.299l0.19,0.463l0.107,0.53l0.242,0.491l1.295,1.038l0.783-0.333l0.788-0.784l1.334-0.344l1.025,0.457l0.805,0.796
		l0.931,0.638l1.405-0.006l1.064-0.158l1.058,0.073l1.003,0.31l0.92,0.514l4.426,3.867l0.73,1.174l1.039,2.693l0.659,1.231
		l1.799,1.909l0.548,1.028l-0.036,1.424l-0.612,0.904l-0.863,0.616l-0.532,0.78l0.369,1.401l1.102,1.441l1.174,1.187l0.843,1.294
		l0.182,2.832l0.562,0.509l0.805,0.034l0.827-0.373l0.518-0.656l0.772-1.577l0.694-0.464l2.491,0.543l2.138,2.211l3.61,4.75
		l0.943,0.82l0.386,0.594l0.471,1.969l0.223,0.243l0.716,0.26l0.204,0.232l-0.033,0.277l-0.253,0.6l-0.011,0.249l0.039,0.243
		l-0.074,0.572l0.063,0.306l0.209,0.238l0.303,0.096l0.292,0.062l0.176,0.125l0.504,1.901l0.51,0.306l1.039,0.051l0.488,0.204
		l0.617,0.821l1.637,8.071l0.865,2.266l1.626,1.603l0.7,0.861l0.871,0.193l0.97-0.215l0.97-0.363l0.997-0.012l0.402-0.005
		l1.339-0.215l1.284-0.017l1.191,0.555l0.477,0.686l0.361,0.827l0.469,0.646l0.81,0.164l0.568-0.323l1.025-1.241l0.716-0.414
		l1.212-0.504l3.098-2.079l7.534-2.923l1.091-0.685l3.092-2.945l1.229-0.543l1.245,0.068l0.981,0.56l0.909,0.759l1.025,0.657
		l0.639,0.074l0.463-0.159l0.413,0.011l0.485,0.606l0.138,0.549l-0.088,0.589l-0.21,0.544l-0.251,0.419l-0.394,0.277l-0.953,0.238
		l-0.375,0.408l-0.083,0.464l0.105,1.099l-0.099,0.51l-0.331,0.17l-0.507,0.096l-0.413,0.295v0.765l0.204,0.634l0.276,0.606
		l0.358,0.561l0.463,0.47l0.821,0.476l1.152,0.459l2.122,0.589l3.428,0.04l0.805-0.147l0.821-1.723l0.005-6.056l0.011-8.184
		l0.014-7.752l0.014-8.194l0.011-9.551l0.017-8.178l0.008-9.088l0.014-6.358l0.011-5.803l-0.001-0.023l-0.01-0.175l-0.005-0.094
		l-2.304,0.192l-1.13,0.395l-1.794,1.319l-2.792,1.297l-0.909,0.175l-0.573-0.316l-0.956-0.947l-0.686-0.259h-0.725l-0.488,0.197
		l-0.774,0.733l-1.044,0.632l-2.342,0.806l-0.816,0.609l-0.336,0.688l-0.642,2.132l-0.218,1.281l-0.196,0.491l-0.085,0.451
		l0.204,0.429l1.604,2.054l0.832,0.316l0.821,0.056l0.639,0.282l0.254,0.982l-0.187,1.022l-0.535,0.801l-0.799,0.502l-1.025,0.102
		l-0.397-0.135l-0.226-0.22l-0.187-0.231l-0.287-0.158l-0.35-0.028l-0.752,0.068l-0.353-0.04l-1.422-0.525l-2.216-1.225l-0.419-0.09
		l-2.138-0.051l-0.617-0.102l-0.499-0.209L477.644,256l-0.959-1.066l-0.537-0.26l-4.351,0.079l-1.303,0.333l-1.111,0.497
		l-0.909,0.581l-0.579-1.061l-0.843,0.13l-0.915,0.457l-0.772-0.051l-0.54-0.277l-0.402,0.006l-0.254-0.147l-0.094-0.717
		l-0.132-0.547l-4.343-8.021l-1.383-1.731l-3.158-1.776l-0.485-0.643l-0.237-1.02l-0.584-1.043l-0.722-0.896l-0.672-0.609
		l-1.879-1.02l-0.733-0.58l-0.303-0.823l-0.165-1.521l-0.485-0.434l-1.863,0.282l-1.121-0.293l-2.621-1.442l-0.694-0.535
		l-0.942-2.045l-0.722-0.535l-1.251,0.721l-0.165-0.501l-0.634-1.059l-0.253-0.299l-0.474-0.411l-0.48-0.304l-0.557-0.039
		l-0.708,0.383l-0.57-0.839l-0.441-2.652l-0.645-0.569l-0.86-0.265l-0.435-0.687l-0.524-3.766l-0.165-0.552l-0.772-0.732
		l-0.358-0.501l0.198-0.225l0.033-0.546l-0.92-3.241l-0.314-0.495l-0.783-0.805l-0.399-0.557l-0.631-1.603l-0.281-0.439
		l-0.248-0.838l-0.066-2.908l0.138-0.967l2.75-4.054l0.182-0.219l1.185-0.933l0.287-0.163l-0.405-2.023l0.223-1.192l0.502-0.792
		l0.507-0.59l0.992-2.068l-0.066-1.832l0.066-0.584l0.135-0.315l0.455-0.685l0.138-0.511l-0.022-0.68l-0.573-2.893l0.033-0.528
		l0.755-1.05l0.7-1.32l0.201-0.584l0.041-0.55l-0.105-1.162l0.063-0.545l0.317-0.5l0.937-0.966l0.198-0.578l0.121-0.561l0.524-1.106
		l0.121-0.589v-2.408l0.264-1.279l0.485-1.251l0.695-1.156l0.904-0.965l0.397-0.527l0.38-1.184l0.81-1.329l0.231-0.281l0.314-0.151
		l0.678,0.051l0.303-0.079l0.747-0.595l0.835-0.841l0.683-1.01l0.281-1.094l-0.287-0.348L445,159.599l-0.287-0.55l0.088-0.628
		l0.295-1.155l-0.019-0.639l-1.295-1.446l-0.7-0.987l-0.011-0.745l0.215-0.516l-0.441-0.824l0.226-0.51l0.314-0.488l0.209-0.628
		l0.083-0.684l-0.061-0.645l-0.386-1.059l-0.485-0.863l-0.413-0.964l-0.165-1.356l0.157-1.137l0.306-0.863l0.149-0.84l-0.287-1.059
		l-0.094-0.028l-0.468-0.28l-0.132-0.101l-0.149-0.286l-0.11-0.577l-0.105-0.246l-1.819-1.557l0.502-1.002l1.317-1.54l0.832-1.669
		l0.474-2.122l0.146-4.316l-0.394-3.901l0.218-1.169l1.64-3.497l0.521-2.338l0.513-0.962l0.984-0.397l0.105-0.246l-1.394-1.432
		l-0.127-0.788l-0.336-0.319l-0.463-0.168l-0.535-0.369l-0.73-1.057l-0.325-1.079l-0.069-2.516l-0.11-0.587l-0.474-1.124l-0.11-0.52
		l-0.231-0.732l-1.009-1.146l-0.215-0.509l0.27-0.296l1.199-0.391l0.355-0.419l-1.678,0.039l-0.65-0.263l-0.262-0.715l-0.025-0.917
		l-0.099-0.704l-0.218-0.598l-0.383-0.564l-1.281-0.95l-0.634-0.609l-0.265-0.844l0.083-0.782l0.099-0.978l-0.116-1.033
		l-1.097-1.357l-1.863-0.983l-2.618-0.547l-2.285-0.882l-0.857-1.977l1.058-1.993l2.282-1.513l4.858-2.306l4.952-3.673l8.871-8.767
		l6.809-9.081l1.992-4.634l0.267-4.805l-2.276-4.793l-0.193-1.014l1.392-0.552l6.391-0.975l9.226-1.415l8.416-1.292l11.194-1.715
		l0.876-0.134l14.176-2.178l14.159-2.172l10.736-1.648L546.266,30v1.777l-0.204,0.745l-0.251,0.619l-0.031,0.571l0.487,0.666
		l-1.381,0.397l-1.57,0.698l-1.475,0.968l-1.067,1.253l-0.801,1.698l-0.518,2.015l0.22,1.793l1.46,1.079l-0.173,1.174l0.91,0.444
		l1.319-0.143l2.009-0.889l0.911,0.254l0.377,0.73l-0.628,1.048l0.157,0.206l0.251,0.524l-0.659,0.333l-0.879,0.635l-0.612,0.603
		l0.126,0.27l0.863-0.063l0.706-0.19l1.177-0.476l1.068-0.603l1.115-0.809l1.02-1.032l0.769-1.238l-0.44,0.174l-0.283,0.032
		l-0.659-0.206l0.314-0.682l0.016-0.095l0.377-0.191l0.487-0.095l1.162-0.016l0.44,0.175l0.016,0.413l-0.267,1.032l0.188,0.746
		l0.471,0.111l0.596-0.079l0.596,0.143l0.267,0.365l0.141,0.397l0.204,0.397l0.455,0.365l1.036,0.143l1.209-0.079l0.989,0.111
		l0.408,0.714l0.377,0.635l2.574,1.778l8.916,9.782l0.973,0.111l1.177-0.604l1.162-0.762l0.863-0.381l-0.078-0.508l0.063-0.492
		l0.22-0.365l0.738-0.286l0.22-0.349l0.157-0.349l0.173-0.238l0.612-0.572l0.33-0.111l0.33,1l0.769,0.619l0.188,0.54l0.675-0.461
		l0.44-0.858l0.236-0.985l0.063-0.873l-0.11-0.397l-0.471-0.889l-0.11-0.365l0.11-0.365l0.471-0.826l0.11-0.46l-0.283-0.857
		l-1.256-0.73l-0.229-0.515l0.854-0.444h1.284l0.623,0.429l1.009,1.36l0.57,0.429l0.686,0.111l0.452-0.156l0.411-0.273l2.758-0.987
		l0.617-0.134l0.38-0.15l0.138-0.212l0.171-0.072l0.474,0.279l0.198,0.34l0.176,0.981l0.182,0.379l0.711,0.468l0.686,0.067
		l0.725-0.078l0.805,0.061l0.838,0.435l1.146,1.327l0.849,0.541l2.05,0.585l1.064,0.892l0.369,1.372l-0.005,2.013l0.4,2.309
		l1.232,1.651l5.131,3.961l0.904,0.352l1.075,0.006l1.091-0.391l1.819-0.988l1.24-0.106l7.948,2.181l-1.003,2.187l-0.005,2.667
		l1.086,2.121l2.265,0.547l1.11-0.463l0.769-0.575l0.849-0.363l1.361,0.195l1.535,0.893l0.554,0.162l0.502-0.045l1.025-0.246
		l0.485,0.022l0.61,0.33l0.493,0.267l1.962,1.998l1.05,0.787l1.075,0.38l1.135,0.145l6.947-0.14l2.155,0.536l1.935,1.306
		l0.584,0.748l1.036,2.457l0.766,1.184l0.725,0.486l2.003,0.162l4.585,1.005l3.82,0.324l0.672,0.363l0.738,0.799l0.198,0.413
		l0.165,0.81l0.309,0.402l0.391,0.14l0.926-0.095l0.391,0.078l2.475,1.648l3.985,1.514L671.636,94.009z"/>
</g>

</svg>
